<svg width="496" height="232" viewBox="0 0 496 232" fill="none" xmlns="http://www.w3.org/2000/svg">
<path d="M101.662 196.471C105.136 201.076 106.924 206.686 106.737 212.399C106.737 221.317 103.183 228.174 96.0771 232.969C88.9709 237.764 78.6083 240.161 64.989 240.161H11V138.385H62.0071C74.7369 138.385 84.5026 140.761 91.3032 145.513C94.542 147.636 97.1767 150.523 98.9625 153.905C100.748 157.288 101.627 161.056 101.518 164.858C101.618 169.488 100.368 174.05 97.914 178.014C95.4599 181.978 91.9024 185.181 87.6546 187.252C93.1989 188.819 98.0984 192.044 101.662 196.471ZM34.9603 156.123V180.111H58.999C64.9629 180.111 69.4879 179.094 72.5747 177.063C74.0813 176.08 75.3004 174.732 76.1119 173.152C76.9233 171.571 77.3003 169.812 77.2048 168.047C77.3036 166.294 76.9277 164.546 76.1152 162.979C75.3026 161.412 74.0813 160.081 72.5747 159.12C69.4879 157.131 64.9672 156.136 59.0121 156.136L34.9603 156.123ZM77.5318 219.375C80.7574 217.343 82.3749 214.193 82.3836 209.925C82.3836 201.492 75.9709 197.275 63.1449 197.275H35.0126V222.423H63.1973C69.5537 222.431 74.349 221.415 77.5839 219.375H77.5318Z" fill="#DDDDDD"/>
<path d="M223.022 137.439V193.549C223.022 199.925 222.421 207.079 218.928 212.678C215.436 218.276 209.407 220.839 202.881 220.839C198.528 221.029 194.246 219.719 190.783 217.141C191.871 216.284 192.85 215.303 193.699 214.221C198.212 208.559 198.931 200.41 198.931 193.511V137.4L223.022 137.439Z" fill="#DDDDDD"/>
<path d="M321.753 240.175L301.625 211.826H279.391V240.175H255.248V138.385H300.435C308.699 138.2 316.909 139.739 324.513 142.9C330.904 145.574 336.358 150.005 340.208 155.652C343.985 161.523 345.904 168.349 345.727 175.277C346.023 182.152 344.119 188.946 340.278 194.718C336.437 200.489 330.85 204.953 324.29 207.49L347.702 240.2L321.753 240.175ZM315.646 162.168C311.862 159.116 306.342 157.59 299.088 157.59H279.404V193.067H299.088C306.342 193.067 311.862 191.516 315.646 188.412C319.43 185.309 321.317 180.948 321.309 175.329C321.309 169.565 319.417 165.178 315.633 162.168H315.646Z" fill="#DDDDDD"/>
<path d="M399.299 235.087C390.846 230.756 383.778 224.24 378.87 216.252C374.034 208.045 371.488 198.746 371.488 189.281C371.488 179.816 374.034 170.516 378.87 162.31C383.78 154.327 390.847 147.815 399.299 143.487C408.366 138.995 418.392 136.653 428.563 136.653C438.733 136.653 448.76 138.995 457.826 143.487C466.338 147.916 473.454 154.517 478.417 162.584C483.379 170.65 486.001 179.881 486.001 189.287C486.001 198.694 483.379 207.924 478.417 215.991C473.454 224.057 466.338 230.658 457.826 235.087C448.76 239.578 438.733 241.92 428.563 241.92C418.393 241.92 408.366 239.578 399.299 235.087ZM445.297 217.693C450.246 214.984 454.322 210.983 457.068 206.139C459.858 200.934 461.316 195.148 461.316 189.274C461.316 183.401 459.858 177.615 457.068 172.41C454.322 167.566 450.246 163.565 445.297 160.856C440.172 158.136 434.43 156.711 428.595 156.711C422.761 156.711 417.018 158.136 411.894 160.856C406.943 163.563 402.867 167.565 400.123 172.41C397.331 177.614 395.874 183.401 395.874 189.274C395.874 195.148 397.331 200.934 400.123 206.139C402.867 210.984 406.944 214.985 411.894 217.693C417.019 220.412 422.761 221.836 428.595 221.836C434.43 221.836 440.172 220.412 445.297 217.693Z" fill="#DDDDDD"/>
<path d="M190.982 241.918H166.825C153.903 241.918 143.85 237.893 136.665 229.841C129.481 221.791 125.884 210.313 125.876 195.41V138.382H150.071V195.372C150.071 210.292 153.668 221.769 160.861 229.803C168.055 237.837 178.095 241.876 190.982 241.918Z" fill="#DDDDDD"/>
<path d="M77.5055 103.541L57.3772 75.1804H35.1434V103.541H11V1.7522H56.187C64.4512 1.56728 72.6602 3.10641 80.2652 6.26653C86.656 8.9399 92.1103 13.3713 95.9597 19.0189C99.7372 24.8898 101.657 31.716 101.479 38.6447C101.663 45.5608 99.7131 52.3713 95.8812 58.1942C91.9951 63.8432 86.4854 68.2486 80.0425 70.8573L103.466 103.541H77.5055ZM71.3978 25.5353C67.6224 22.4832 62.103 20.9572 54.8399 20.9572H35.2218V56.4215H54.8399C62.0943 56.4215 67.6136 54.8698 71.3978 51.7668C75.1819 48.6638 77.0693 44.3025 77.0605 38.683C77.0605 32.9274 75.1731 28.5449 71.3978 25.5353Z" fill="#DDDDDD"/>
<path d="M170.592 82.0646L171.285 82.4348C167.677 84.2053 163.706 85.1617 159.667 85.2323C155.628 85.3029 151.624 84.4861 147.953 82.8429C141.132 79.5169 135.903 73.7373 133.37 66.7238C127.798 52.3008 131.121 32.4709 145.298 23.8504C149.189 21.5474 153.616 20.2467 158.165 20.0704C162.713 19.8943 167.232 20.8483 171.298 22.8429C153.707 31.4253 150.87 57.0191 160.286 72.207C162.728 76.3535 166.294 79.7635 170.592 82.0646Z" fill="#DDDDDD"/>
<path d="M232.833 52.6453C232.833 70.3964 224.986 88.071 209.436 97.9667C201.652 102.816 192.593 105.359 183.357 105.287H159.2C169.799 105.366 180.122 101.996 188.535 95.7099C196.674 89.4115 202.688 80.8783 205.8 71.2127C212.483 51.0256 207.827 26.4136 191.413 11.8886C182.587 4.16493 171.125 -0.0727804 159.265 0.00346934C167.204 0.00346934 175.143 0.00346934 183.082 0.00346934C190.445 -0.083596 197.732 1.46911 204.387 4.54331C212.598 8.52151 219.505 14.6563 224.332 22.2563C230.024 31.412 232.968 41.9398 232.833 52.6453Z" fill="#DDDDDD"/>
<path d="M255.248 1.75195H279.405V103.541H255.248V1.75195Z" fill="#DDDDDD"/>
</svg>
