<svg width="80" height="56" viewBox="0 0 80 56" fill="none" xmlns="http://www.w3.org/2000/svg">
<path d="M56.8987 18.0104C56.8987 16.7784 56.7064 15.5946 56.5061 14.4512H40.3867V21.167H49.4318C49.0313 23.3412 48.0058 25.1852 46.1711 26.4253V30.8059H51.7712C55.0239 27.7782 56.8987 23.3009 56.8987 18.0104Z" fill="#4284F4"/>
<path d="M40.3304 35.0019C44.9851 35.0019 48.9028 33.4639 51.763 30.8065L46.1628 26.4259C44.6246 27.4728 42.6457 28.0848 40.3304 28.0848C35.8439 28.0848 32.0303 25.0328 30.6684 20.918H24.916V25.4194C27.7601 31.1045 33.5926 35.0019 40.3304 35.0019Z" fill="#34A853"/>
<path d="M30.6768 20.9253C30.3323 19.8785 30.1401 18.7672 30.1401 17.6157C30.1401 16.4642 30.3323 15.3529 30.6768 14.3061V9.80469H24.9245C23.7548 12.156 23.0898 14.8053 23.0898 17.6157C23.0898 20.426 23.7548 23.0753 24.9245 25.4267L30.6768 20.9253Z" fill="#FBBC04"/>
<path d="M40.3304 7.13981C42.862 7.13981 45.1373 8.01754 46.932 9.74079L51.8751 4.75625C48.8868 1.94591 44.9851 0.222656 40.3304 0.222656C33.5926 0.222656 27.7521 4.1201 24.916 9.80521L30.6684 14.3066C32.0303 10.1917 35.8439 7.13981 40.3304 7.13981Z" fill="#EA4335"/>
<path d="M3.11507 52.7088C2.46613 52.3303 1.95338 51.815 1.56883 51.1547C1.18427 50.4944 1 49.7616 1 48.9644C1 48.1672 1.19228 47.4344 1.56883 46.7741C1.94537 46.1138 2.46613 45.5984 3.11507 45.2199C3.76401 44.8415 4.47705 44.6562 5.24616 44.6562C5.84703 44.6562 6.41586 44.7609 6.94462 44.9784C7.47339 45.1958 7.91403 45.4937 8.25853 45.8883L7.56152 46.5889C7.30515 46.2668 6.96866 46.0171 6.56808 45.848C6.15949 45.6789 5.72686 45.5904 5.26218 45.5904C4.68535 45.5904 4.14056 45.7272 3.64384 46.0091C3.14712 46.2909 2.73852 46.6855 2.44209 47.1928C2.13765 47.7001 1.99344 48.296 1.99344 48.9644C1.99344 49.6327 2.14566 50.2206 2.44209 50.7359C2.73852 51.2513 3.14712 51.6459 3.65185 51.9197C4.15658 52.2015 4.69336 52.3384 5.27019 52.3384C5.823 52.3384 6.27966 52.2498 6.64819 52.0807C7.01673 51.9116 7.33719 51.6781 7.60158 51.3963C7.80187 51.1788 7.9621 50.9212 8.08227 50.6152C8.20245 50.3092 8.28256 49.979 8.31461 49.6086H5.27821V48.6986H9.21992C9.25998 48.9161 9.27601 49.1093 9.27601 49.2945C9.27601 49.8018 9.19589 50.293 9.03566 50.7762C8.87543 51.2594 8.61905 51.6781 8.26654 52.0405C7.51345 52.8618 6.50399 53.2725 5.25417 53.2725C4.47705 53.2725 3.76401 53.0873 3.11507 52.7088Z" fill="#27292D" stroke="white" stroke-width="0.25" stroke-miterlimit="10"/>
<path d="M11.6788 52.8611C11.2222 52.5873 10.8616 52.2088 10.6053 51.7337C10.3489 51.2586 10.2207 50.7352 10.2207 50.1554C10.2207 49.5756 10.3489 49.0522 10.6053 48.5771C10.8616 48.102 11.2222 47.7235 11.6788 47.4497C12.1355 47.176 12.6562 47.0391 13.2251 47.0391C13.7939 47.0391 14.3146 47.176 14.7713 47.4497C15.228 47.7235 15.5885 48.102 15.8449 48.5771C16.1012 49.0522 16.2294 49.5756 16.2294 50.1554C16.2294 50.7352 16.1012 51.2586 15.8449 51.7337C15.5885 52.2088 15.228 52.5873 14.7713 52.8611C14.3146 53.1349 13.7939 53.2717 13.2251 53.2717C12.6562 53.2717 12.1355 53.1349 11.6788 52.8611ZM14.2265 52.1122C14.539 51.935 14.7873 51.6693 14.9716 51.3311C15.1559 50.9929 15.252 50.5983 15.252 50.1474C15.252 49.6964 15.1559 49.3018 14.9716 48.9636C14.7873 48.6254 14.539 48.3677 14.2265 48.1906C13.9141 48.0134 13.5856 47.9168 13.2251 47.9168C12.8645 47.9168 12.5281 48.0054 12.2156 48.1906C11.9031 48.3677 11.6548 48.6335 11.4625 48.9636C11.2782 49.3018 11.1821 49.6964 11.1821 50.1474C11.1821 50.5983 11.2782 50.9929 11.4625 51.3311C11.6468 51.6693 11.9031 51.927 12.2156 52.1122C12.5281 52.2893 12.8645 52.386 13.2251 52.386C13.5856 52.386 13.9221 52.2974 14.2265 52.1122Z" fill="#27292D" stroke="white" stroke-width="0.25" stroke-miterlimit="10"/>
<path d="M18.4972 52.8611C18.0405 52.5873 17.68 52.2088 17.4236 51.7337C17.1672 51.2586 17.0391 50.7352 17.0391 50.1554C17.0391 49.5756 17.1672 49.0522 17.4236 48.5771C17.68 48.102 18.0405 47.7235 18.4972 47.4497C18.9538 47.176 19.4746 47.0391 20.0434 47.0391C20.6122 47.0391 21.133 47.176 21.5897 47.4497C22.0463 47.7235 22.4068 48.102 22.6632 48.5771C22.9196 49.0522 23.0478 49.5756 23.0478 50.1554C23.0478 50.7352 22.9196 51.2586 22.6632 51.7337C22.4068 52.2088 22.0463 52.5873 21.5897 52.8611C21.133 53.1349 20.6122 53.2717 20.0434 53.2717C19.4746 53.2717 18.9538 53.1349 18.4972 52.8611ZM21.0449 52.1122C21.3573 51.935 21.6057 51.6693 21.79 51.3311C21.9742 50.9929 22.0704 50.5983 22.0704 50.1474C22.0704 49.6964 21.9742 49.3018 21.79 48.9636C21.6057 48.6254 21.3573 48.3677 21.0449 48.1906C20.7324 48.0134 20.4039 47.9168 20.0434 47.9168C19.6829 47.9168 19.3464 48.0054 19.034 48.1906C18.7215 48.3677 18.4731 48.6335 18.2809 48.9636C18.0966 49.3018 18.0005 49.6964 18.0005 50.1474C18.0005 50.5983 18.0966 50.9929 18.2809 51.3311C18.4651 51.6693 18.7215 51.927 19.034 52.1122C19.3464 52.2893 19.6829 52.386 20.0434 52.386C20.4039 52.386 20.7404 52.2974 21.0449 52.1122Z" fill="#27292D" stroke="white" stroke-width="0.25" stroke-miterlimit="10"/>
<path d="M25.0351 55.2766C24.5865 54.9545 24.29 54.568 24.1378 54.117L25.0191 53.7386C25.1473 54.0768 25.3636 54.3506 25.668 54.5599C25.9725 54.7693 26.325 54.874 26.7416 54.874C27.3425 54.874 27.8152 54.7049 28.1436 54.3667C28.4721 54.0285 28.6404 53.5453 28.6404 52.9172V52.2649H28.5923C28.4 52.5629 28.1356 52.8045 27.7831 52.9977C27.4386 53.1829 27.038 53.2796 26.5974 53.2796C26.0927 53.2796 25.636 53.1507 25.2194 52.885C24.8028 52.6193 24.4743 52.2488 24.226 51.7818C23.9776 51.3067 23.8574 50.7672 23.8574 50.1632C23.8574 49.5673 23.9776 49.0278 24.226 48.5527C24.4743 48.0776 24.8028 47.7072 25.2194 47.4414C25.636 47.1757 26.0927 47.0469 26.5974 47.0469C27.038 47.0469 27.4386 47.1435 27.7831 47.3287C28.1276 47.5139 28.4 47.7636 28.5923 48.0695H28.6404V47.2321H29.5697V52.8769C29.5697 53.8191 29.3133 54.5438 28.7926 55.035C28.2718 55.5262 27.5908 55.7759 26.7416 55.7759C26.0446 55.7598 25.4838 55.5987 25.0351 55.2766ZM27.695 52.12C27.9834 51.9428 28.2077 51.6852 28.384 51.3469C28.5522 51.0087 28.6404 50.6142 28.6404 50.1552C28.6404 49.6881 28.5522 49.2855 28.384 48.9473C28.2157 48.6091 27.9834 48.3594 27.695 48.1823C27.4066 48.0051 27.0861 47.9166 26.7416 47.9166C26.3971 47.9166 26.0686 48.0051 25.7802 48.1823C25.4918 48.3594 25.2595 48.6171 25.0832 48.9553C24.915 49.2935 24.8268 49.6881 24.8268 50.1471C24.8268 50.6061 24.915 51.0087 25.0832 51.3469C25.2514 51.6852 25.4838 51.9428 25.7802 52.12C26.0766 52.2972 26.3891 52.3857 26.7416 52.3857C27.0941 52.3857 27.4066 52.2972 27.695 52.12Z" fill="#27292D" stroke="white" stroke-width="0.25" stroke-miterlimit="10"/>
<path d="M30.9961 44.8418H31.9735V53.0876H30.9961V44.8418Z" fill="#27292D" stroke="white" stroke-width="0.25" stroke-miterlimit="10"/>
<path d="M34.5134 52.8696C34.0727 52.6039 33.7282 52.2334 33.4799 51.7583C33.2315 51.2832 33.1113 50.7518 33.1113 50.1639C33.1113 49.5922 33.2315 49.0768 33.4638 48.5937C33.6962 48.1186 34.0247 47.7401 34.4573 47.4502C34.8819 47.1684 35.3786 47.0234 35.9474 47.0234C36.5163 47.0234 37.013 47.1523 37.4376 47.41C37.8542 47.6676 38.1827 48.022 38.407 48.4729C38.6313 48.9238 38.7435 49.4473 38.7435 50.027C38.7435 50.1398 38.7355 50.2445 38.7114 50.325H34.0968C34.1208 50.7679 34.2249 51.1464 34.4172 51.4524C34.6095 51.7583 34.8499 51.9919 35.1463 52.1449C35.4427 52.2979 35.7472 52.3784 36.0676 52.3784C36.8127 52.3784 37.3895 52.0241 37.7981 51.3155L38.6233 51.7181C38.375 52.1932 38.0305 52.5717 37.5978 52.8454C37.1652 53.1192 36.6445 53.2561 36.0356 53.2561C35.4587 53.2722 34.954 53.1353 34.5134 52.8696ZM37.702 49.5278C37.686 49.2862 37.6139 49.0366 37.4937 48.7869C37.3735 48.5454 37.1812 48.336 36.9168 48.1669C36.6525 47.9978 36.324 47.9173 35.9234 47.9173C35.4667 47.9173 35.0742 48.0622 34.7617 48.3602C34.4413 48.6581 34.233 49.0446 34.1368 49.5278H37.702Z" fill="#27292D" stroke="white" stroke-width="0.25" stroke-miterlimit="10"/>
<path d="M42.2598 44.8418H45.0238C45.4804 44.8418 45.9051 44.9465 46.2976 45.1558C46.6902 45.3652 46.9946 45.6551 47.235 46.0255C47.4673 46.3959 47.5875 46.8147 47.5875 47.2898C47.5875 47.7568 47.4673 48.1756 47.235 48.554C47.0026 48.9245 46.6902 49.2143 46.2976 49.4237C45.9051 49.6331 45.4804 49.7378 45.0238 49.7378H43.2212V53.1037H42.2598V44.8418ZM45.0398 48.7956C45.3442 48.7956 45.6166 48.7231 45.849 48.5782C46.0813 48.4332 46.2656 48.248 46.3938 48.0145C46.522 47.781 46.586 47.5394 46.586 47.2898C46.586 47.0401 46.522 46.7986 46.3938 46.565C46.2656 46.3315 46.0813 46.1463 45.849 46.0014C45.6166 45.8564 45.3442 45.7839 45.0398 45.7839H43.2212V48.8037H45.0398V48.7956Z" fill="#27292D" stroke="white" stroke-width="0.25" stroke-miterlimit="10"/>
<path d="M49.5339 53.0224C49.1974 52.8533 48.941 52.6197 48.7568 52.3218C48.5725 52.0238 48.4844 51.6937 48.4844 51.3152C48.4844 50.6952 48.7167 50.204 49.1814 49.8577C49.6461 49.5114 50.2389 49.3343 50.9439 49.3343C51.2965 49.3343 51.6249 49.3745 51.9214 49.447C52.2258 49.5275 52.4581 49.6161 52.6184 49.7128V49.3584C52.6184 48.9236 52.4661 48.5693 52.1617 48.3036C51.8573 48.0378 51.4727 47.909 51.008 47.909C50.6796 47.909 50.3751 47.9815 50.1027 48.1184C49.8303 48.2633 49.614 48.4566 49.4538 48.7142L48.7167 48.1586C48.949 47.8043 49.2615 47.5305 49.6621 47.3292C50.0627 47.1279 50.5113 47.0312 51 47.0312C51.7932 47.0312 52.4181 47.2406 52.8747 47.6594C53.3314 48.0781 53.5557 48.6498 53.5557 49.3665V53.0868H52.6104V52.2493H52.5623C52.394 52.5312 52.1457 52.7727 51.8092 52.9741C51.4727 53.1754 51.0962 53.272 50.6715 53.272C50.2469 53.272 49.8704 53.1915 49.5339 53.0224ZM51.681 52.1527C51.9614 51.9836 52.1857 51.7581 52.354 51.4763C52.5222 51.1944 52.6023 50.8804 52.6023 50.5422C52.4181 50.4214 52.1938 50.3167 51.9294 50.2442C51.665 50.1718 51.3766 50.1315 51.0801 50.1315C50.5434 50.1315 50.1428 50.2442 49.8704 50.4697C49.598 50.6952 49.4618 50.977 49.4618 51.3313C49.4618 51.6534 49.582 51.9111 49.8303 52.1124C50.0787 52.3137 50.3831 52.4104 50.7597 52.4104C51.0962 52.4104 51.4006 52.3218 51.681 52.1527Z" fill="#27292D" stroke="white" stroke-width="0.25" stroke-miterlimit="10"/>
<path d="M54.7346 47.306H55.6639V48.2401H55.712C55.8482 47.8938 56.0805 47.6281 56.409 47.4348C56.7375 47.2416 57.098 47.145 57.4826 47.145C57.6508 47.145 57.795 47.153 57.9072 47.1772V48.1757C57.779 48.1435 57.6027 48.1274 57.3784 48.1274C56.8817 48.1274 56.4811 48.2965 56.1687 48.6186C55.8562 48.9487 55.704 49.3755 55.704 49.907V53.1683H54.7266V47.306H54.7346ZM60.6632 53.1522C60.4629 53.0716 60.2946 52.967 60.1504 52.8381C59.9982 52.6932 59.886 52.516 59.8059 52.3228C59.7258 52.1295 59.6938 51.8879 59.6938 51.6061V48.1032H58.6763V47.2174H59.6938V45.5586H60.6632V47.2174H62.0812V48.1032H60.6632V51.3726C60.6632 51.7027 60.7273 51.9443 60.8474 52.1053C60.9917 52.2744 61.2 52.363 61.4804 52.363C61.7047 52.363 61.913 52.2986 62.1213 52.1698V53.128C62.0091 53.1844 61.889 53.2166 61.7688 53.2407C61.6486 53.2649 61.4964 53.273 61.3201 53.273C61.0798 53.273 60.8635 53.2327 60.6632 53.1522Z" fill="#27292D" stroke="white" stroke-width="0.25" stroke-miterlimit="10"/>
<path d="M63.1936 47.2165H64.1229V48.0781H64.171C64.3312 47.7882 64.5876 47.5386 64.9401 47.3373C65.2926 47.1359 65.6691 47.0312 66.0617 47.0312C66.7667 47.0312 67.3035 47.2326 67.6721 47.6432C68.0406 48.0539 68.2249 48.6096 68.2249 49.3182V53.0868H67.2474V49.4712C67.2474 48.9236 67.1193 48.529 66.8549 48.2875C66.5985 48.0459 66.238 47.917 65.7893 47.917C65.4769 47.917 65.1965 48.0056 64.9481 48.1828C64.6997 48.3599 64.5075 48.5935 64.3713 48.8833C64.2351 49.1732 64.163 49.4712 64.163 49.7852V53.0868H63.1855V47.2165H63.1936Z" fill="#27292D" stroke="white" stroke-width="0.25" stroke-miterlimit="10"/>
<path d="M70.7263 52.8696C70.2856 52.6039 69.9411 52.2334 69.6928 51.7583C69.4444 51.2832 69.3242 50.7518 69.3242 50.1639C69.3242 49.5922 69.4444 49.0768 69.6767 48.5937C69.9091 48.1186 70.2375 47.7401 70.6702 47.4502C71.1028 47.1603 71.5915 47.0234 72.1603 47.0234C72.7292 47.0234 73.2259 47.1523 73.6505 47.41C74.0751 47.6676 74.3956 48.022 74.6199 48.4729C74.8442 48.9238 74.9564 49.4473 74.9564 50.027C74.9564 50.1398 74.9484 50.2445 74.9243 50.325H70.3096C70.3337 50.7679 70.4378 51.1464 70.6301 51.4524C70.8224 51.7583 71.0627 51.9919 71.3592 52.1449C71.6556 52.2979 71.96 52.3784 72.2805 52.3784C73.0256 52.3784 73.6024 52.0241 74.011 51.3155L74.8362 51.7181C74.5798 52.1932 74.2434 52.5717 73.8107 52.8454C73.3781 53.1192 72.8573 53.2561 72.2485 53.2561C71.6716 53.2722 71.1669 53.1353 70.7263 52.8696ZM73.9149 49.5278C73.8989 49.2862 73.8267 49.0366 73.7066 48.7869C73.5864 48.5454 73.3941 48.336 73.1297 48.1669C72.8654 47.9978 72.5369 47.9173 72.1363 47.9173C71.6796 47.9173 71.2871 48.0622 70.9746 48.3602C70.6541 48.6581 70.4458 49.0446 70.3497 49.5278H73.9149Z" fill="#27292D" stroke="white" stroke-width="0.25" stroke-miterlimit="10"/>
<path d="M76.0605 47.2165H76.9899V48.1586H77.038C77.1501 47.8365 77.3745 47.5708 77.7029 47.3534C78.0314 47.1359 78.3759 47.0312 78.7364 47.0312C79.0008 47.0312 79.2331 47.0715 79.4254 47.1601V48.2069C79.1771 48.0861 78.9047 48.0217 78.6002 48.0217C78.3198 48.0217 78.0554 48.1022 77.8231 48.2633C77.5828 48.4243 77.3985 48.6418 77.2543 48.9156C77.1101 49.1893 77.046 49.4792 77.046 49.8013V53.0868H76.0686V47.2165H76.0605Z" fill="#27292D" stroke="white" stroke-width="0.25" stroke-miterlimit="10"/>
</svg>
