<svg width="166" height="61" viewBox="0 0 166 61" fill="none" xmlns="http://www.w3.org/2000/svg">
<mask id="mask0_719_9227" style="mask-type:luminance" maskUnits="userSpaceOnUse" x="0" y="0" width="61" height="61">
<path d="M60.7206 0H0.555664V60.8571H60.7206V0Z" fill="white"/>
</mask>
<g mask="url(#mask0_719_9227)">
<path d="M29.2572 1.17136C29.7698 -0.163891 31.6548 -0.163891 32.1674 1.17136C32.6277 2.37064 34.2554 2.53129 34.9403 1.44505C35.7029 0.235682 37.5518 0.604205 37.7945 2.01401C38.0126 3.28023 39.5777 3.75604 40.461 2.82459C41.4443 1.78754 43.186 2.5105 43.1496 3.94064C43.1169 5.22518 44.5594 5.99784 45.607 5.25696C46.7733 4.43206 48.3407 5.48162 48.0264 6.87717C47.7445 8.13066 49.0087 9.17047 50.1805 8.64862C51.485 8.06766 52.8182 9.40347 52.2385 10.7108C51.7178 11.885 52.7552 13.152 54.0058 12.8693C55.3986 12.5546 56.4461 14.1253 55.6229 15.2942C54.8835 16.3441 55.6544 17.7896 56.9364 17.7568C58.3635 17.7204 59.0849 19.4657 58.0498 20.4512C57.1203 21.3363 57.5954 22.9049 58.8589 23.1233C60.2658 23.3666 60.6335 25.2194 59.4268 25.9837C58.3427 26.6701 58.503 28.3012 59.6995 28.7626C61.0321 29.2761 61.0321 31.1653 59.6995 31.6789C58.503 32.1402 58.3427 33.7714 59.4268 34.4578C60.6335 35.2221 60.2658 37.0749 58.8589 37.3181C57.5954 37.5366 57.1203 39.1051 58.0498 39.9903C59.0849 40.9758 58.3635 42.7211 56.9364 42.6846C55.6544 42.6519 54.8835 44.0974 55.6229 45.1473C56.4461 46.3161 55.3986 47.8869 54.0058 47.5719C52.7552 47.2894 51.7178 48.5564 52.2385 49.7307C52.8182 51.038 51.485 52.374 50.1805 51.7931C49.0087 51.2713 47.7445 52.3109 48.0264 53.5641C48.3407 54.9599 46.7733 56.0091 45.607 55.1847C44.5594 54.4437 43.1169 55.2163 43.1496 56.501C43.186 57.9312 41.4443 58.6541 40.461 57.6168C39.5777 56.6853 38.0126 57.1615 37.7945 58.4276C37.5518 59.8375 35.7029 60.206 34.9403 58.9962C34.2554 57.9103 32.6277 58.0709 32.1674 59.27C31.6548 60.6055 29.7698 60.6055 29.2572 59.27C28.7969 58.0709 27.1692 57.9103 26.4842 58.9962C25.7216 60.206 23.8727 59.8375 23.63 58.4276C23.412 57.1615 21.8469 56.6853 20.9636 57.6168C19.9802 58.6541 18.2386 57.9312 18.275 56.501C18.3076 55.2163 16.8652 54.4437 15.8176 55.1847C14.6512 56.0091 13.0838 54.9599 13.3979 53.5641C13.68 52.3109 12.4157 51.2713 11.244 51.7931C9.93943 52.374 8.60647 51.038 9.18625 49.7307C9.70693 48.5564 8.66933 47.2894 7.41857 47.5719C6.02595 47.8869 4.97869 46.3161 5.80177 45.1473C6.54107 44.0974 5.77005 42.6519 4.48826 42.6846C3.06117 42.7211 2.33975 40.9758 3.37459 39.9903C4.30405 39.1051 3.82926 37.5366 2.56574 37.3181C1.159 37.0749 0.791206 35.2221 1.99805 34.4578C3.08192 33.7714 2.92161 32.1402 1.72489 31.6789C0.392486 31.1653 0.392486 29.2761 1.72489 28.7626C2.92161 28.3012 3.08192 26.6701 1.99805 25.9837C0.791206 25.2194 1.159 23.3666 2.56574 23.1233C3.82926 22.9049 4.30405 21.3363 3.37459 20.4512C2.33975 19.4657 3.06117 17.7204 4.48826 17.7568C5.77005 17.7896 6.54107 16.3441 5.80177 15.2942C4.97869 14.1253 6.02595 12.5546 7.41857 12.8693C8.66933 13.152 9.70693 11.885 9.18625 10.7108C8.60647 9.40347 9.93943 8.06766 11.244 8.64862C12.4157 9.17047 13.68 8.13066 13.3979 6.87717C13.0838 5.48162 14.6512 4.43206 15.8176 5.25696C16.8652 5.99784 18.3076 5.22518 18.275 3.94064C18.2386 2.5105 19.9802 1.78754 20.9636 2.82459C21.8469 3.75604 23.412 3.28023 23.63 2.01401C23.8727 0.604205 25.7216 0.235682 26.4842 1.44505C27.1692 2.53129 28.7969 2.37064 29.2572 1.17136Z" fill="#FC3F1D"/>
<path d="M51.445 30.158C51.445 41.6469 42.1513 50.9605 30.6869 50.9605C19.2225 50.9605 9.92871 41.6469 9.92871 30.158C9.92871 18.6691 19.2225 9.35547 30.6869 9.35547C32.911 9.35547 35.0534 9.70596 37.0621 10.3549C36.898 10.8701 36.3482 11.1512 35.827 11.0111C34.1879 10.5702 32.4648 10.3352 30.6869 10.3352C19.7624 10.3352 10.9063 19.2102 10.9063 30.1581C10.9063 41.1059 19.7624 49.9812 30.6869 49.9812C41.6114 49.9812 50.4677 41.1059 50.4677 30.1581C50.4677 28.5202 50.2692 26.9288 49.8953 25.4065C49.7665 24.8814 50.0589 24.3364 50.5762 24.1829C51.1413 26.0753 51.445 28.0812 51.445 30.158Z" fill="white"/>
<path d="M33.0612 23.5068H31.3686C28.467 23.5068 27.0162 24.9743 27.0162 27.1755C27.0162 29.6213 27.9834 30.8442 30.1596 32.3117L31.8522 33.5346L27.0162 41.1166H23.1475L27.7416 34.2683C25.0818 32.3117 23.631 30.5996 23.631 27.4201C23.631 23.5068 26.2908 20.8164 31.3686 20.8164H36.4463V41.1166H33.0612V23.5068Z" fill="white"/>
<path d="M43.6762 10.8287C43.7167 10.7498 43.8293 10.7498 43.8698 10.8287C45.2926 13.6039 47.5468 15.8629 50.3163 17.2888C50.395 17.3294 50.395 17.4422 50.3163 17.4828C47.5468 18.9087 45.2926 21.1677 43.8698 23.9428C43.8293 24.0218 43.7167 24.0218 43.6762 23.9428C42.2534 21.1677 39.9992 18.9087 37.23 17.4828C37.1512 17.4422 37.1512 17.3294 37.23 17.2888C39.9992 15.8629 42.2534 13.6039 43.6762 10.8287Z" fill="white"/>
<g filter="url(#filter0_df_719_9227)">
<path d="M48.0248 13.125L46.4792 17.3853L48.0248 21.6457L43.7737 20.0966L39.5225 21.6456L41.0683 17.3853L39.5225 13.125L43.7737 14.6741L48.0248 13.125Z" fill="#FC3F1D"/>
</g>
<path d="M47.516 13.51C47.5934 13.4817 47.6685 13.557 47.6403 13.6346L46.2916 17.352C46.2838 17.3734 46.2838 17.3969 46.2916 17.4184L47.6403 21.1358C47.6685 21.2134 47.5934 21.2886 47.516 21.2604L43.8065 19.9087C43.7851 19.9009 43.7617 19.9009 43.7402 19.9087L40.0308 21.2604C39.9533 21.2886 39.8783 21.2134 39.9064 21.1358L41.2552 17.4184C41.263 17.3969 41.263 17.3734 41.2552 17.352L39.9064 13.6346C39.8783 13.557 39.9533 13.4817 40.0308 13.51L43.7402 14.8616C43.7617 14.8694 43.7851 14.8694 43.8065 14.8616L47.516 13.51Z" fill="white"/>
</g>
<path d="M70.3015 18.1325C69.7549 18.1325 69.2556 18.0513 68.8035 17.8891C68.3582 17.72 67.977 17.4833 67.6598 17.1791C67.3427 16.868 67.0964 16.4893 66.921 16.0431C66.7523 15.59 66.668 15.0795 66.668 14.5115C66.668 13.9435 66.7489 13.4363 66.9109 12.9901C67.0728 12.537 67.309 12.1583 67.6194 11.8541C67.9297 11.543 68.3076 11.3063 68.7529 11.1441C69.205 10.975 69.7178 10.8905 70.2914 10.8905C70.7637 10.8905 71.1753 10.9344 71.5262 11.0223C71.8838 11.1103 72.1604 11.2286 72.3561 11.3773V12.3003C72.0997 12.1448 71.8062 12.0231 71.4755 11.9352C71.1449 11.8473 70.7907 11.8033 70.4128 11.8033C69.5896 11.8033 68.9824 12.0366 68.591 12.5032C68.1996 12.963 68.004 13.6324 68.004 14.5115C68.004 15.3973 68.1963 16.0701 68.5809 16.5299C68.9655 16.9897 69.5761 17.2196 70.4128 17.2196C70.7907 17.2196 71.1415 17.1757 71.4654 17.0878C71.7893 16.9931 72.0862 16.8477 72.3561 16.6516V17.5848C72.1739 17.7268 71.9074 17.8553 71.5565 17.9702C71.2056 18.0784 70.7873 18.1325 70.3015 18.1325ZM77.6472 17.5949C77.5055 17.7099 77.2829 17.8282 76.9792 17.9499C76.6823 18.0716 76.3011 18.1325 75.8355 18.1325C74.9111 18.1325 74.2161 17.8958 73.7506 17.4225C73.285 16.9424 73.0522 16.2899 73.0522 15.4649C73.0522 15.0524 73.1129 14.6839 73.2344 14.3593C73.3626 14.028 73.538 13.7474 73.7607 13.5175C73.9834 13.2876 74.2465 13.1118 74.5501 12.9901C74.8605 12.8683 75.2013 12.8075 75.5724 12.8075C75.957 12.8075 76.3011 12.8717 76.6047 13.0002C76.9084 13.1219 77.158 13.3079 77.3537 13.5581C77.5494 13.8083 77.6843 14.1159 77.7586 14.4811C77.8328 14.8462 77.8328 15.2722 77.7586 15.7591H74.2465C74.2937 16.273 74.4523 16.655 74.7222 16.9052C74.9988 17.1554 75.4138 17.2805 75.9671 17.2805C76.3517 17.2805 76.679 17.2298 76.9489 17.1283C77.2255 17.0202 77.4583 16.9052 77.6472 16.7835V17.5949ZM75.5623 13.5581C75.2046 13.5581 74.9078 13.6832 74.6716 13.9333C74.4422 14.1835 74.3039 14.5588 74.2566 15.0592H76.6756C76.7026 14.5453 76.6115 14.1666 76.4023 13.9232C76.1932 13.6798 75.9131 13.5581 75.5623 13.5581ZM81.4764 18.1325C81.0918 18.1325 80.7612 18.048 80.4845 17.8789C80.2146 17.7099 79.992 17.48 79.8166 17.1892V19.8973H78.6324V12.9089H79.685L79.7862 13.8218C79.9549 13.5107 80.1809 13.2639 80.4643 13.0813C80.7477 12.8988 81.0952 12.8075 81.5068 12.8075C81.8037 12.8075 82.0871 12.8616 82.357 12.9698C82.6269 13.078 82.863 13.2436 83.0655 13.4668C83.2746 13.6832 83.4399 13.957 83.5614 14.2883C83.6828 14.6197 83.7436 15.0119 83.7436 15.4649C83.7436 15.9112 83.6795 16.3034 83.5513 16.6415C83.4298 16.9728 83.2645 17.2501 83.0553 17.4732C82.8529 17.6963 82.6134 17.862 82.3367 17.9702C82.0668 18.0784 81.7801 18.1325 81.4764 18.1325ZM81.193 17.3312C81.5844 17.3312 81.9049 17.1824 82.1545 16.8849C82.4042 16.5874 82.529 16.1141 82.529 15.4649C82.529 14.8225 82.4042 14.3526 82.1545 14.0551C81.9049 13.7575 81.5844 13.6088 81.193 13.6088C80.9974 13.6088 80.8152 13.646 80.6465 13.7203C80.4778 13.788 80.3294 13.8995 80.2012 14.0551C80.0797 14.2038 79.9819 14.3965 79.9076 14.6332C79.8402 14.8631 79.8064 15.1403 79.8064 15.4649C79.8064 15.7963 79.8402 16.0803 79.9076 16.3169C79.9819 16.5468 80.0797 16.7395 80.2012 16.8951C80.3294 17.0438 80.4778 17.1554 80.6465 17.2298C80.8152 17.2974 80.9974 17.3312 81.193 17.3312ZM86.8232 13.7305V18.0311H85.6289V13.7305H84.0703V12.9089H88.4021V13.7305H86.8232ZM90.3134 16.5806L92.8538 12.9089H93.9165V18.0311H92.7526V14.3492L90.2223 18.0311H89.1494V12.9089H90.3134V16.5806ZM101.518 15.4751C101.518 15.8943 101.447 16.2628 101.306 16.5806C101.164 16.8984 100.965 17.1655 100.708 17.3819C100.459 17.5983 100.162 17.7673 99.8178 17.8891C99.4804 18.0108 99.116 18.0818 98.7247 18.1021V19.9278H97.5607V18.1021C97.1559 18.075 96.7814 18.0006 96.4373 17.8789C96.0999 17.7572 95.8064 17.5882 95.5567 17.3718C95.3071 17.1554 95.1114 16.8883 94.9697 16.5705C94.828 16.2527 94.7571 15.8875 94.7571 15.4751C94.7571 15.0626 94.828 14.6974 94.9697 14.3796C95.1114 14.0618 95.3071 13.7947 95.5567 13.5783C95.8064 13.3552 96.1033 13.1828 96.4474 13.0611C96.7915 12.9393 97.1626 12.8683 97.5607 12.8481V10.7891H98.7247V12.8481C99.1228 12.8751 99.4905 12.9495 99.8279 13.0712C100.172 13.1929 100.469 13.362 100.719 13.5783C100.968 13.7947 101.164 14.0618 101.306 14.3796C101.447 14.6974 101.518 15.0626 101.518 15.4751ZM95.9413 15.4751C95.9413 15.7591 95.9818 16.0126 96.0628 16.2358C96.1437 16.4589 96.2551 16.6483 96.3968 16.8038C96.5452 16.9525 96.7173 17.0709 96.913 17.1588C97.1154 17.2399 97.3313 17.2873 97.5607 17.3008V13.6493C97.3313 13.6696 97.1154 13.7237 96.913 13.8116C96.7173 13.8928 96.5452 14.0111 96.3968 14.1666C96.2551 14.3154 96.1437 14.5013 96.0628 14.7245C95.9818 14.9409 95.9413 15.1911 95.9413 15.4751ZM100.324 15.4751C100.324 15.1911 100.283 14.9409 100.202 14.7245C100.121 14.5013 100.01 14.3154 99.8684 14.1666C99.7267 14.0111 99.558 13.8928 99.3623 13.8116C99.1666 13.7237 98.9541 13.6696 98.7247 13.6493V17.3008C98.9541 17.2805 99.1666 17.2298 99.3623 17.1486C99.558 17.0607 99.7267 16.9424 99.8684 16.7936C100.01 16.6381 100.121 16.4522 100.202 16.2358C100.283 16.0126 100.324 15.7591 100.324 15.4751ZM103.519 16.5806L106.059 12.9089H107.122V18.0311H105.958V14.3492L103.428 18.0311H102.355V12.9089H103.519V16.5806ZM112.487 18.0311H108.236V12.9089H109.42V17.2501H111.606V12.9089H112.79V17.2501H113.56V19.6438H112.689L112.487 18.0311ZM115.379 16.5806L117.92 12.9089H118.982V18.0311H117.818V14.3492L115.288 18.0311H114.215V12.9089H115.379V16.5806ZM122.92 18.1325C122.535 18.1325 122.205 18.048 121.928 17.8789C121.658 17.7099 121.436 17.48 121.26 17.1892V19.8973H120.076V12.9089H121.129L121.23 13.8218C121.398 13.5107 121.624 13.2639 121.908 13.0813C122.191 12.8988 122.539 12.8075 122.95 12.8075C123.247 12.8075 123.531 12.8616 123.801 12.9698C124.07 13.078 124.307 13.2436 124.509 13.4668C124.718 13.6832 124.883 13.957 125.005 14.2883C125.126 14.6197 125.187 15.0119 125.187 15.4649C125.187 15.9112 125.123 16.3034 124.995 16.6415C124.873 16.9728 124.708 17.2501 124.499 17.4732C124.296 17.6963 124.057 17.862 123.78 17.9702C123.51 18.0784 123.224 18.1325 122.92 18.1325ZM122.637 17.3312C123.028 17.3312 123.348 17.1824 123.598 16.8849C123.848 16.5874 123.973 16.1141 123.973 15.4649C123.973 14.8225 123.848 14.3526 123.598 14.0551C123.348 13.7575 123.028 13.6088 122.637 13.6088C122.441 13.6088 122.259 13.646 122.09 13.7203C121.921 13.788 121.773 13.8995 121.645 14.0551C121.523 14.2038 121.425 14.3965 121.351 14.6332C121.284 14.8631 121.25 15.1403 121.25 15.4649C121.25 15.7963 121.284 16.0803 121.351 16.3169C121.425 16.5468 121.523 16.7395 121.645 16.8951C121.773 17.0438 121.921 17.1554 122.09 17.2298C122.259 17.2974 122.441 17.3312 122.637 17.3312ZM128.334 18.1325C127.97 18.1325 127.629 18.075 127.312 17.9601C127.002 17.8383 126.728 17.6659 126.492 17.4428C126.263 17.2129 126.081 16.9323 125.946 16.6009C125.817 16.2696 125.753 15.8909 125.753 15.4649C125.753 15.0389 125.817 14.6603 125.946 14.3289C126.081 13.9976 126.263 13.7203 126.492 13.4972C126.728 13.2673 127.002 13.0949 127.312 12.9799C127.629 12.865 127.97 12.8075 128.334 12.8075C128.699 12.8075 129.039 12.865 129.357 12.9799C129.68 13.0949 129.957 13.2673 130.186 13.4972C130.423 13.7203 130.608 13.9976 130.743 14.3289C130.878 14.6603 130.946 15.0389 130.946 15.4649C130.946 15.8909 130.878 16.2696 130.743 16.6009C130.608 16.9323 130.423 17.2129 130.186 17.4428C129.957 17.6659 129.684 17.8383 129.367 17.9601C129.049 18.075 128.705 18.1325 128.334 18.1325ZM128.334 17.3312C128.537 17.3312 128.722 17.2974 128.891 17.2298C129.066 17.1622 129.215 17.054 129.336 16.9052C129.464 16.7564 129.562 16.5637 129.63 16.3271C129.704 16.0904 129.741 15.803 129.741 15.4649C129.741 15.1268 129.704 14.8394 129.63 14.6028C129.562 14.3661 129.464 14.1768 129.336 14.0348C129.215 13.886 129.066 13.7778 128.891 13.7102C128.722 13.6426 128.537 13.6088 128.334 13.6088C128.139 13.6088 127.956 13.6426 127.788 13.7102C127.619 13.7778 127.474 13.886 127.353 14.0348C127.231 14.1768 127.133 14.3661 127.059 14.6028C126.992 14.8394 126.958 15.1268 126.958 15.4649C126.958 15.803 126.992 16.0904 127.059 16.3271C127.133 16.5637 127.231 16.7564 127.353 16.9052C127.474 17.054 127.619 17.1622 127.788 17.2298C127.956 17.2974 128.139 17.3312 128.334 17.3312ZM131.789 12.9089H133.945C134.579 12.9089 135.055 13.0137 135.372 13.2233C135.689 13.433 135.848 13.7677 135.848 14.2275C135.848 14.5318 135.767 14.7786 135.605 14.9679C135.443 15.1505 135.217 15.279 134.927 15.3533C135.682 15.4751 136.06 15.8774 136.06 16.5603C136.06 16.8173 136.01 17.0371 135.908 17.2196C135.807 17.4022 135.662 17.5543 135.473 17.6761C135.284 17.7978 135.058 17.8891 134.795 17.9499C134.539 18.004 134.248 18.0311 133.925 18.0311H131.789V12.9089ZM132.943 13.6189V15.0592H133.732C134.029 15.0592 134.262 14.9983 134.431 14.8766C134.606 14.7549 134.694 14.5893 134.694 14.3796C134.694 14.0956 134.616 13.8995 134.461 13.7913C134.306 13.6764 134.083 13.6189 133.793 13.6189H132.943ZM132.943 15.7388V17.3211H133.793C134.117 17.3211 134.373 17.2636 134.562 17.1486C134.758 17.0269 134.856 16.8139 134.856 16.5096C134.856 16.2324 134.768 16.0363 134.593 15.9213C134.417 15.7996 134.151 15.7388 133.793 15.7388H132.943ZM139.978 18.0311C139.903 17.8214 139.856 17.551 139.836 17.2196C139.782 17.3278 139.708 17.436 139.613 17.5442C139.526 17.6524 139.414 17.7504 139.279 17.8383C139.151 17.9263 138.996 17.9973 138.814 18.0513C138.638 18.1054 138.429 18.1325 138.186 18.1325C137.957 18.1325 137.744 18.1021 137.549 18.0412C137.36 17.9871 137.194 17.9026 137.053 17.7876C136.911 17.6659 136.8 17.5138 136.719 17.3312C136.638 17.1486 136.597 16.9356 136.597 16.6922C136.597 16.158 136.813 15.7489 137.245 15.4649C137.683 15.1809 138.382 15.0389 139.34 15.0389H139.795V14.6332C139.795 14.3019 139.711 14.0584 139.542 13.9029C139.374 13.7406 139.077 13.6595 138.652 13.6595C138.308 13.6595 137.984 13.7102 137.68 13.8116C137.383 13.9131 137.134 14.0415 136.931 14.1971V13.3653C137.086 13.2098 137.329 13.078 137.66 12.9698C137.99 12.8616 138.375 12.8075 138.814 12.8075C139.509 12.8075 140.042 12.9461 140.413 13.2233C140.791 13.4938 140.98 13.9333 140.98 14.5419V17.2095C140.98 17.3244 140.983 17.4698 140.99 17.6456C141.003 17.8147 141.02 17.9432 141.04 18.0311H139.978ZM138.571 17.3616C138.766 17.3616 138.938 17.3278 139.087 17.2602C139.242 17.1926 139.37 17.1047 139.472 16.9965C139.58 16.8883 139.66 16.77 139.714 16.6415C139.768 16.5063 139.795 16.371 139.795 16.2358V15.6576H139.391C139.08 15.6576 138.82 15.6779 138.611 15.7185C138.402 15.7523 138.233 15.8064 138.105 15.8808C137.984 15.9552 137.896 16.0498 137.842 16.1648C137.795 16.2797 137.771 16.415 137.771 16.5705C137.771 16.8477 137.842 17.0506 137.984 17.1791C138.132 17.3008 138.328 17.3616 138.571 17.3616ZM145.399 15.7895H143.213V18.0311H142.029V12.9089H143.213V15.0186H145.399V12.9089H146.573V18.0311H145.399V15.7895ZM151.063 15.7895H148.877V18.0311H147.693V12.9089H148.877V15.0186H151.063V12.9089H152.237V18.0311H151.063V15.7895ZM159.297 18.0311H158.123V12.9089H159.297V18.0311ZM157.486 16.2763C157.486 16.5739 157.432 16.8342 157.324 17.0573C157.216 17.2737 157.064 17.4563 156.868 17.6051C156.673 17.7471 156.44 17.8553 156.17 17.9296C155.9 17.9973 155.603 18.0311 155.279 18.0311H153.356V12.9089H154.54V14.5926H155.32C156.008 14.5926 156.541 14.7313 156.919 15.0085C157.297 15.279 157.486 15.7016 157.486 16.2763ZM154.54 15.3331V17.2906H155.188C155.519 17.2906 155.785 17.2163 155.988 17.0675C156.19 16.9187 156.291 16.6685 156.291 16.3169C156.291 15.9721 156.197 15.7219 156.008 15.5663C155.826 15.4108 155.566 15.3331 155.229 15.3331H154.54ZM162.832 12.4322C162.299 12.4322 161.901 12.3071 161.638 12.0569C161.382 11.8 161.254 11.4855 161.254 11.1136H162.266C162.266 11.3503 162.313 11.5227 162.407 11.6309C162.509 11.7323 162.65 11.7831 162.832 11.7831C163.008 11.7831 163.146 11.7323 163.247 11.6309C163.349 11.5227 163.399 11.3503 163.399 11.1136H164.391C164.391 11.4855 164.263 11.8 164.006 12.0569C163.75 12.3071 163.359 12.4322 162.832 12.4322ZM161.577 16.5806L164.118 12.9089H165.181V18.0311H164.017V14.3492L161.486 18.0311H160.413V12.9089H161.577V16.5806ZM66.9008 25.3057H71.3338V30.4279H70.1497V26.0867H68.0849V30.4279H66.9008V25.3057ZM75.5831 30.4279C75.5088 30.2183 75.4616 29.9478 75.4414 29.6165C75.3874 29.7246 75.3132 29.8328 75.2187 29.941C75.131 30.0492 75.0197 30.1473 74.8847 30.2352C74.7565 30.3231 74.6013 30.3941 74.4191 30.4482C74.2437 30.5023 74.0345 30.5293 73.7916 30.5293C73.5622 30.5293 73.3496 30.4989 73.154 30.438C72.965 30.3839 72.7997 30.2994 72.658 30.1845C72.5163 30.0627 72.405 29.9106 72.324 29.728C72.2431 29.5455 72.2026 29.3325 72.2026 29.089C72.2026 28.5548 72.4185 28.1457 72.8503 27.8617C73.2889 27.5777 73.9873 27.4357 74.9454 27.4357H75.4009V27.03C75.4009 26.6987 75.3165 26.4553 75.1479 26.2997C74.9792 26.1375 74.6823 26.0563 74.2572 26.0563C73.9131 26.0563 73.5892 26.107 73.2856 26.2085C72.9887 26.3099 72.739 26.4384 72.5366 26.5939V25.7622C72.6918 25.6067 72.9347 25.4748 73.2653 25.3666C73.5959 25.2584 73.9805 25.2043 74.4191 25.2043C75.1141 25.2043 75.6472 25.3429 76.0183 25.6202C76.3961 25.8906 76.5851 26.3302 76.5851 26.9387V29.6063C76.5851 29.7213 76.5884 29.8667 76.5952 30.0425C76.6087 30.2115 76.6256 30.34 76.6458 30.4279H75.5831ZM74.1762 29.7585C74.3719 29.7585 74.544 29.7247 74.6924 29.657C74.8476 29.5894 74.9758 29.5015 75.077 29.3933C75.185 29.2851 75.2659 29.1668 75.3199 29.0383C75.3739 28.9031 75.4009 28.7678 75.4009 28.6326V28.0545H74.996C74.6857 28.0545 74.4259 28.0747 74.2167 28.1153C74.0075 28.1491 73.8388 28.2032 73.7106 28.2776C73.5892 28.352 73.5015 28.4467 73.4475 28.5616C73.4003 28.6766 73.3766 28.8118 73.3766 28.9673C73.3766 29.2446 73.4475 29.4474 73.5892 29.5759C73.7376 29.6976 73.9333 29.7585 74.1762 29.7585ZM80.4587 30.5293C80.0741 30.5293 79.7434 30.4448 79.4668 30.2757C79.1969 30.1067 78.9742 29.8768 78.7988 29.586V32.2942H77.6146V25.3057H78.6672L78.7684 26.2186C78.9371 25.9076 79.1632 25.6607 79.4466 25.4782C79.73 25.2956 80.0775 25.2043 80.489 25.2043C80.7859 25.2043 81.0693 25.2584 81.3392 25.3666C81.6091 25.4748 81.8453 25.6405 82.0477 25.8636C82.2569 26.08 82.4222 26.3538 82.5436 26.6852C82.6651 27.0165 82.7258 27.4087 82.7258 27.8617C82.7258 28.308 82.6617 28.7002 82.5335 29.0383C82.4121 29.3696 82.2468 29.6469 82.0376 29.87C81.8352 30.0932 81.5956 30.2588 81.319 30.367C81.0491 30.4752 80.7623 30.5293 80.4587 30.5293ZM80.1753 29.728C80.5666 29.728 80.8871 29.5793 81.1368 29.2817C81.3865 28.9842 81.5113 28.5109 81.5113 27.8617C81.5113 27.2194 81.3865 26.7494 81.1368 26.4519C80.8871 26.1544 80.5666 26.0056 80.1753 26.0056C79.9796 26.0056 79.7974 26.0428 79.6287 26.1172C79.4601 26.1848 79.3116 26.2964 79.1834 26.4519C79.062 26.6007 78.9641 26.7934 78.8899 27.03C78.8224 27.2599 78.7887 27.5372 78.7887 27.8617C78.7887 28.1931 78.8224 28.4771 78.8899 28.7137C78.9641 28.9437 79.062 29.1364 79.1834 29.2919C79.3116 29.4407 79.4601 29.5522 79.6287 29.6266C79.7974 29.6942 79.9796 29.728 80.1753 29.728ZM85.8055 26.1273V30.4279H84.6112V26.1273H83.0525V25.3057H87.3844V26.1273H85.8055ZM91.5021 28.1863H89.3159V30.4279H88.1317V25.3057H89.3159V27.4155H91.5021V25.3057H92.6761V30.4279H91.5021V28.1863ZM98.1168 29.9917C97.9751 30.1067 97.7525 30.225 97.4488 30.3467C97.1519 30.4685 96.7707 30.5293 96.3051 30.5293C95.3807 30.5293 94.6857 30.2926 94.2202 29.8193C93.7546 29.3392 93.5218 28.6867 93.5218 27.8617C93.5218 27.4493 93.5825 27.0807 93.704 26.7562C93.8322 26.4248 94.0076 26.1442 94.2303 25.9143C94.4529 25.6844 94.7161 25.5086 95.0197 25.3869C95.3301 25.2652 95.6709 25.2043 96.042 25.2043C96.4266 25.2043 96.7707 25.2686 97.0743 25.397C97.378 25.5187 97.6276 25.7047 97.8233 25.9549C98.019 26.2051 98.1539 26.5127 98.2282 26.8779C98.3024 27.243 98.3024 27.669 98.2282 28.1559H94.7161C94.7633 28.6698 94.9219 29.0518 95.1918 29.302C95.4684 29.5522 95.8834 29.6773 96.4367 29.6773C96.8213 29.6773 97.1486 29.6266 97.4185 29.5252C97.6951 29.417 97.9279 29.302 98.1168 29.1803V29.9917ZM96.0319 25.9549C95.6742 25.9549 95.3774 26.08 95.1412 26.3302C94.9118 26.5804 94.7734 26.9556 94.7262 27.456H97.1452C97.1722 26.9421 97.0811 26.5635 96.8719 26.32C96.6627 26.0766 96.3827 25.9549 96.0319 25.9549ZM94.9489 24.6363C94.76 24.6363 94.6014 24.5788 94.4732 24.4639C94.345 24.3422 94.2809 24.1833 94.2809 23.9872C94.2809 23.7911 94.345 23.6322 94.4732 23.5105C94.6014 23.3887 94.76 23.3279 94.9489 23.3279C95.1446 23.3279 95.3065 23.3887 95.4347 23.5105C95.5696 23.6322 95.6371 23.7911 95.6371 23.9872C95.6371 24.1833 95.5696 24.3422 95.4347 24.4639C95.3065 24.5788 95.1446 24.6363 94.9489 24.6363ZM97.1452 24.6363C96.9495 24.6363 96.7876 24.5788 96.6594 24.4639C96.5379 24.3422 96.4772 24.1833 96.4772 23.9872C96.4772 23.7911 96.5379 23.6322 96.6594 23.5105C96.7876 23.3887 96.9495 23.3279 97.1452 23.3279C97.3409 23.3279 97.4994 23.3887 97.6209 23.5105C97.7491 23.6322 97.8132 23.7911 97.8132 23.9872C97.8132 24.1833 97.7491 24.3422 97.6209 24.4639C97.4994 24.5788 97.3409 24.6363 97.1452 24.6363ZM101.947 30.5293C101.562 30.5293 101.231 30.4448 100.955 30.2757C100.685 30.1067 100.462 29.8768 100.287 29.586V32.2942H99.1025V25.3057H100.155L100.256 26.2186C100.425 25.9076 100.651 25.6607 100.934 25.4782C101.218 25.2956 101.565 25.2043 101.977 25.2043C102.274 25.2043 102.557 25.2584 102.827 25.3666C103.097 25.4748 103.333 25.6405 103.536 25.8636C103.745 26.08 103.91 26.3538 104.032 26.6852C104.153 27.0165 104.214 27.4087 104.214 27.8617C104.214 28.308 104.15 28.7002 104.021 29.0383C103.9 29.3696 103.735 29.6469 103.525 29.87C103.323 30.0932 103.084 30.2588 102.807 30.367C102.537 30.4752 102.25 30.5293 101.947 30.5293ZM101.663 29.728C102.055 29.728 102.375 29.5793 102.625 29.2817C102.874 28.9842 102.999 28.5109 102.999 27.8617C102.999 27.2194 102.874 26.7494 102.625 26.4519C102.375 26.1544 102.055 26.0056 101.663 26.0056C101.468 26.0056 101.285 26.0428 101.117 26.1172C100.948 26.1848 100.8 26.2964 100.671 26.4519C100.55 26.6007 100.452 26.7934 100.378 27.03C100.31 27.2599 100.277 27.5372 100.277 27.8617C100.277 28.1931 100.31 28.4771 100.378 28.7137C100.452 28.9437 100.55 29.1364 100.671 29.2919C100.8 29.4407 100.948 29.5522 101.117 29.6266C101.285 29.6942 101.468 29.728 101.663 29.728ZM107.081 25.539C107.081 25.1671 107.145 24.8459 107.273 24.5755C107.408 24.305 107.597 24.0818 107.84 23.906C108.083 23.7235 108.373 23.5916 108.71 23.5105C109.048 23.4226 109.422 23.3786 109.834 23.3786H112.162V30.4279H110.917V27.74H109.803L108.022 30.4279H106.585L108.599 27.5067C108.1 27.3715 107.722 27.1416 107.465 26.817C107.209 26.4925 107.081 26.0665 107.081 25.539ZM110.917 26.888V24.2306H109.844C109.621 24.2306 109.419 24.2543 109.237 24.3016C109.054 24.3489 108.896 24.4267 108.761 24.5349C108.633 24.6363 108.532 24.7716 108.457 24.9406C108.39 25.1029 108.356 25.3024 108.356 25.539C108.356 25.9988 108.478 26.3403 108.72 26.5635C108.963 26.7798 109.311 26.888 109.763 26.888H110.917ZM116.726 28.1863H114.54V30.4279H113.355V25.3057H114.54V27.4155H116.726V25.3057H117.9V30.4279H116.726V28.1863ZM119.322 29.0485C119.457 28.6901 119.545 28.2032 119.586 27.5879C119.626 26.9726 119.656 26.2118 119.677 25.3057H123.472V29.6469H124.241V32.0406H123.371L123.169 30.4279H119.525L119.322 32.0406H118.452V29.6469H118.928C119.09 29.5184 119.221 29.3189 119.322 29.0485ZM120.254 29.2615C120.22 29.3358 120.186 29.4068 120.152 29.4745C120.125 29.5353 120.095 29.5928 120.061 29.6469H122.288V26.0867H120.628C120.608 26.8441 120.571 27.4797 120.517 27.9936C120.47 28.5075 120.382 28.9301 120.254 29.2615ZM129.103 29.9917C128.962 30.1067 128.739 30.225 128.435 30.3467C128.139 30.4685 127.757 30.5293 127.292 30.5293C126.367 30.5293 125.672 30.2926 125.207 29.8193C124.741 29.3392 124.508 28.6867 124.508 27.8617C124.508 27.4493 124.569 27.0807 124.691 26.7562C124.819 26.4248 124.994 26.1442 125.217 25.9143C125.44 25.6844 125.703 25.5086 126.006 25.3869C126.317 25.2652 126.658 25.2043 127.029 25.2043C127.413 25.2043 127.757 25.2686 128.061 25.397C128.365 25.5187 128.614 25.7047 128.81 25.9549C129.006 26.2051 129.141 26.5127 129.215 26.8779C129.289 27.243 129.289 27.669 129.215 28.1559H125.703C125.75 28.6698 125.909 29.0518 126.178 29.302C126.455 29.5522 126.87 29.6773 127.423 29.6773C127.808 29.6773 128.135 29.6266 128.405 29.5252C128.682 29.417 128.915 29.302 129.103 29.1803V29.9917ZM127.019 25.9549C126.661 25.9549 126.364 26.08 126.128 26.3302C125.898 26.5804 125.76 26.9556 125.712 27.456H128.132C128.159 26.9421 128.068 26.5635 127.859 26.32C127.649 26.0766 127.369 25.9549 127.019 25.9549ZM131.293 25.3057V30.4279H130.109V25.3057H131.293ZM132.609 27.7197L134.714 30.4279H133.317L131.364 27.9125L133.499 25.3057H134.623L132.609 27.7197ZM137.519 30.5293C137.107 30.5293 136.736 30.4718 136.405 30.3569C136.081 30.2352 135.801 30.0594 135.565 29.8295C135.336 29.5996 135.157 29.3189 135.029 28.9876C134.907 28.6563 134.847 28.281 134.847 27.8617C134.847 27.4425 134.907 27.0706 135.029 26.746C135.157 26.4147 135.339 26.1341 135.575 25.9042C135.812 25.6743 136.095 25.5018 136.426 25.3869C136.756 25.2652 137.131 25.2043 137.549 25.2043C137.9 25.2043 138.207 25.2449 138.47 25.326C138.74 25.4072 138.956 25.512 139.118 25.6405V26.462C138.7 26.1916 138.21 26.0563 137.65 26.0563C136.591 26.0563 136.061 26.6581 136.061 27.8617C136.061 29.0721 136.581 29.6773 137.62 29.6773C137.924 29.6773 138.197 29.6401 138.44 29.5657C138.689 29.4914 138.915 29.3899 139.118 29.2615V30.083C138.949 30.2183 138.733 30.3265 138.47 30.4076C138.207 30.4887 137.89 30.5293 137.519 30.5293ZM143.002 30.4279C142.928 30.2183 142.881 29.9478 142.86 29.6165C142.806 29.7246 142.732 29.8328 142.638 29.941C142.55 30.0492 142.439 30.1473 142.304 30.2352C142.176 30.3231 142.02 30.3941 141.838 30.4482C141.663 30.5023 141.454 30.5293 141.211 30.5293C140.981 30.5293 140.769 30.4989 140.573 30.438C140.384 30.3839 140.219 30.2994 140.077 30.1845C139.935 30.0627 139.824 29.9106 139.743 29.728C139.662 29.5455 139.622 29.3325 139.622 29.089C139.622 28.5548 139.838 28.1457 140.269 27.8617C140.708 27.5777 141.406 27.4357 142.365 27.4357H142.82V27.03C142.82 26.6987 142.736 26.4553 142.567 26.2997C142.398 26.1375 142.101 26.0563 141.676 26.0563C141.332 26.0563 141.008 26.107 140.705 26.2085C140.408 26.3099 140.158 26.4384 139.956 26.5939V25.7622C140.111 25.6067 140.354 25.4748 140.684 25.3666C141.015 25.2584 141.4 25.2043 141.838 25.2043C142.533 25.2043 143.066 25.3429 143.437 25.6202C143.815 25.8906 144.004 26.3302 144.004 26.9387V29.6063C144.004 29.7213 144.008 29.8667 144.014 30.0425C144.028 30.2115 144.045 30.34 144.065 30.4279H143.002ZM141.595 29.7585C141.791 29.7585 141.963 29.7247 142.111 29.657C142.267 29.5894 142.395 29.5015 142.496 29.3933C142.604 29.2851 142.685 29.1668 142.739 29.0383C142.793 28.9031 142.82 28.7678 142.82 28.6326V28.0545H142.415C142.105 28.0545 141.845 28.0747 141.636 28.1153C141.427 28.1491 141.258 28.2032 141.13 28.2776C141.008 28.352 140.921 28.4467 140.867 28.5616C140.819 28.6766 140.796 28.8118 140.796 28.9673C140.796 29.2446 140.867 29.4474 141.008 29.5759C141.157 29.6976 141.352 29.7585 141.595 29.7585Z" fill="white"/>
<path d="M75.8699 46.1113L76.9478 43.6973H77.7069V47.3335H77.0895V44.6L76.1128 46.7756L75.7737 46.7807H75.5561L74.5996 44.5645V47.3335H74.043V43.6973H74.8628L75.8699 46.1113ZM78.9872 43.6973H81.3252V44.2298H79.5995V45.1883H81.062V45.7157H79.5995V46.8061H81.3505V47.3335H78.9872V43.6973ZM83.9747 44.2298V47.3335H83.3573V44.2298H82.2541V43.6973H85.0728V44.2298H83.9747ZM86.0973 43.6973H87.2815C87.7201 43.6973 88.0608 43.7852 88.3038 43.961C88.5467 44.1368 88.6681 44.4157 88.6681 44.7978C88.6681 45.0074 88.6344 45.1883 88.5669 45.3404C88.4994 45.4926 88.4033 45.6176 88.2785 45.7157C88.157 45.8137 88.0086 45.8864 87.8331 45.9338C87.6611 45.9777 87.4688 45.9997 87.2562 45.9997H86.7097V47.3335H86.0973V43.6973ZM86.7097 44.2298V45.4723H87.2562C87.5025 45.4723 87.6965 45.4232 87.8382 45.3252C87.9799 45.2271 88.0507 45.0581 88.0507 44.8181C88.0507 44.6118 87.9849 44.4631 87.8534 44.3718C87.7252 44.2771 87.5345 44.2298 87.2815 44.2298H86.7097ZM89.737 47.3335V43.6973H90.3494V46.4612L92.1864 43.6973H92.824V47.3335H92.2016V44.5797L90.3747 47.3335H89.737ZM95.0692 45.8222H94.715V47.3335H94.1026V43.6973H94.715V45.2948H95.0793L96.2534 43.6973H96.9113L95.5652 45.5128L96.967 47.3335H96.2281L95.0692 45.8222ZM98.9114 43.6973H99.716L101.001 47.3335H100.369L100.035 46.3801H98.5065L98.1725 47.3335H97.631L98.9114 43.6973ZM99.8476 45.8526L99.2707 44.2146L98.6937 45.8526H99.8476Z" fill="white"/>
<path d="M73.9345 38.8766H100.924V37.7598H73.9345V38.8766ZM100.924 51.8471H73.9345V52.9639H100.924V51.8471ZM73.9345 51.8471C70.3606 51.8471 67.4631 48.9434 67.4631 45.3618H66.3486C66.3486 49.5604 69.7449 52.9639 73.9345 52.9639V51.8471ZM107.396 45.3618C107.396 48.9434 104.498 51.8471 100.924 51.8471V52.9639C105.114 52.9639 108.51 49.5604 108.51 45.3618H107.396ZM100.924 38.8766C104.498 38.8766 107.396 41.7801 107.396 45.3618H108.51C108.51 41.1634 105.114 37.7598 100.924 37.7598V38.8766ZM73.9345 37.7598C69.7449 37.7598 66.3486 41.1634 66.3486 45.3618H67.4631C67.4631 41.7801 70.3606 38.8766 73.9345 38.8766V37.7598Z" fill="#9BA6BB"/>
<defs>
<filter id="filter0_df_719_9227" x="34.8073" y="8.40984" width="17.9323" height="17.9518" filterUnits="userSpaceOnUse" color-interpolation-filters="sRGB">
<feFlood flood-opacity="0" result="BackgroundImageFix"/>
<feColorMatrix in="SourceAlpha" type="matrix" values="0 0 0 0 0 0 0 0 0 0 0 0 0 0 0 0 0 0 127 0" result="hardAlpha"/>
<feOffset/>
<feGaussianBlur stdDeviation="2.35758"/>
<feColorMatrix type="matrix" values="0 0 0 0 1 0 0 0 0 0 0 0 0 0 0 0 0 0 1 0"/>
<feBlend mode="normal" in2="BackgroundImageFix" result="effect1_dropShadow_719_9227"/>
<feBlend mode="normal" in="SourceGraphic" in2="effect1_dropShadow_719_9227" result="shape"/>
<feGaussianBlur stdDeviation="0.884094" result="effect2_foregroundBlur_719_9227"/>
</filter>
</defs>
</svg>
