<svg width="257" height="256" viewBox="0 0 257 256" fill="none" xmlns="http://www.w3.org/2000/svg">
<g clip-path="url(#clip0_719_9324)">
<path d="M198.622 240.278C181.603 241.319 166.73 236.224 154.003 224.995C141.268 213.757 134.379 199.65 133.335 182.671C132.292 165.692 137.403 150.851 148.667 138.146C159.923 125.45 174.061 118.582 191.081 117.541C208.1 116.5 222.977 121.594 235.712 132.823C248.439 144.061 255.324 158.169 256.367 175.148C257.41 192.126 252.304 206.968 241.048 219.672C229.783 232.369 215.641 239.237 198.622 240.278ZM197.689 184.896L223.963 155.262L214.823 147.197L188.549 176.831L197.689 184.896ZM5.77882 116.552L0.5 30.636L246.564 15.5898L252.672 115.007C243.955 107.121 234.179 101.3 223.344 97.5443C212.518 93.7958 201.261 92.2789 189.573 92.9936C181.781 93.47 174.409 94.8981 167.459 97.2779C160.499 99.65 153.948 102.769 147.805 106.635L124.979 66.7598C123.828 64.7769 122.196 63.3367 120.082 62.4393C117.969 61.5419 115.784 61.1621 113.529 61.3C111.273 61.4379 109.152 62.081 107.164 63.2292C105.176 64.3774 103.733 66.0056 102.833 68.114L69.3874 146.85L53.8684 120.387C52.7175 118.404 51.1323 116.859 49.113 115.75C47.0855 114.642 44.944 114.157 42.6884 114.295L5.77882 116.552ZM12.5659 227.015L7.28705 141.099L36.5071 139.313L60.3318 180.359C61.4953 182.547 63.0878 184.145 65.1093 185.155C67.1221 186.157 69.3588 186.583 71.8195 186.433C74.075 186.295 76.1445 185.605 78.0277 184.365C79.9022 183.117 81.283 181.337 82.17 179.024L115.942 100.576L129.063 123.181C122.158 131.406 116.864 140.711 113.18 151.096C109.496 161.489 108.013 172.516 108.729 184.176C109.119 190.517 110.174 196.768 111.894 202.93C113.606 209.084 116.073 214.937 119.296 220.489L12.5659 227.015Z" fill="#0F0F10"/>
</g>
<defs>
<clipPath id="clip0_719_9324">
<rect width="256" height="256" fill="white" transform="translate(0.5)"/>
</clipPath>
</defs>
</svg>
