<svg width="166" height="61" viewBox="0 0 166 61" fill="none" xmlns="http://www.w3.org/2000/svg">
<mask id="mask0_630_8423" style="mask-type:luminance" maskUnits="userSpaceOnUse" x="0" y="0" width="61" height="61">
<path d="M60.7197 0H0.554688V60.8571H60.7197V0Z" fill="white"/>
</mask>
<g mask="url(#mask0_630_8423)">
<path d="M29.2562 1.17136C29.7688 -0.163891 31.6538 -0.163891 32.1664 1.17136C32.6267 2.37064 34.2544 2.53129 34.9394 1.44505C35.7019 0.235682 37.5509 0.604205 37.7935 2.01401C38.0116 3.28023 39.5767 3.75604 40.46 2.82459C41.4434 1.78754 43.185 2.5105 43.1486 3.94064C43.1159 5.22518 44.5584 5.99784 45.606 5.25696C46.7724 4.43206 48.3397 5.48162 48.0254 6.87717C47.7435 8.13066 49.0077 9.17047 50.1795 8.64862C51.4841 8.06766 52.8172 9.40347 52.2375 10.7108C51.7169 11.885 52.7543 13.152 54.0048 12.8693C55.3976 12.5546 56.4451 14.1253 55.6219 15.2942C54.8825 16.3441 55.6534 17.7896 56.9355 17.7568C58.3625 17.7204 59.084 19.4657 58.0488 20.4512C57.1193 21.3363 57.5945 22.9049 58.8579 23.1233C60.2648 23.3666 60.6325 25.2194 59.4258 25.9837C58.3417 26.6701 58.502 28.3012 59.6985 28.7626C61.0312 29.2761 61.0312 31.1653 59.6985 31.6789C58.502 32.1402 58.3417 33.7714 59.4258 34.4579C60.6325 35.2221 60.2648 37.0749 58.8579 37.3181C57.5945 37.5366 57.1193 39.1051 58.0488 39.9903C59.084 40.9758 58.3625 42.7211 56.9355 42.6846C55.6534 42.6519 54.8825 44.0974 55.6219 45.1473C56.4451 46.3161 55.3976 47.8869 54.0048 47.5719C52.7543 47.2894 51.7169 48.5564 52.2375 49.7307C52.8172 51.038 51.4841 52.374 50.1795 51.7931C49.0077 51.2713 47.7435 52.3109 48.0254 53.5641C48.3397 54.9599 46.7724 56.0091 45.606 55.1847C44.5584 54.4437 43.1159 55.2163 43.1486 56.501C43.185 57.9312 41.4434 58.6541 40.46 57.6168C39.5767 56.6853 38.0116 57.1615 37.7935 58.4276C37.5509 59.8375 35.7019 60.206 34.9394 58.9962C34.2544 57.9103 32.6267 58.0709 32.1664 59.27C31.6538 60.6055 29.7688 60.6055 29.2562 59.27C28.7959 58.0709 27.1682 57.9103 26.4833 58.9962C25.7206 60.206 23.8718 59.8375 23.629 58.4276C23.411 57.1615 21.8459 56.6853 20.9626 57.6168C19.9793 58.6541 18.2376 57.9312 18.274 56.501C18.3067 55.2163 16.8642 54.4437 15.8166 55.1847C14.6502 56.0091 13.0828 54.9599 13.3969 53.5641C13.679 52.3109 12.4147 51.2713 11.243 51.7931C9.93845 52.374 8.60549 51.038 9.18527 49.7307C9.70595 48.5564 8.66835 47.2894 7.4176 47.5719C6.02498 47.8869 4.97771 46.3161 5.80079 45.1473C6.54009 44.0974 5.76908 42.6519 4.48728 42.6846C3.06019 42.7211 2.33877 40.9758 3.37361 39.9903C4.30308 39.1051 3.82828 37.5366 2.56476 37.3181C1.15802 37.0749 0.790229 35.2221 1.99707 34.4579C3.08094 33.7714 2.92063 32.1402 1.72391 31.6789C0.391509 31.1653 0.391509 29.2761 1.72391 28.7626C2.92063 28.3012 3.08094 26.6701 1.99707 25.9837C0.790229 25.2194 1.15802 23.3666 2.56476 23.1233C3.82828 22.9049 4.30308 21.3363 3.37361 20.4512C2.33877 19.4657 3.06019 17.7204 4.48728 17.7568C5.76908 17.7896 6.54009 16.3441 5.80079 15.2942C4.97771 14.1253 6.02498 12.5546 7.4176 12.8693C8.66835 13.152 9.70595 11.885 9.18527 10.7108C8.60549 9.40347 9.93845 8.06766 11.243 8.64862C12.4147 9.17047 13.679 8.13066 13.3969 6.87717C13.0828 5.48162 14.6502 4.43206 15.8166 5.25696C16.8642 5.99784 18.3067 5.22518 18.274 3.94064C18.2376 2.5105 19.9793 1.78754 20.9626 2.82459C21.8459 3.75604 23.411 3.28023 23.629 2.01401C23.8718 0.604205 25.7206 0.235682 26.4833 1.44505C27.1682 2.53129 28.7959 2.37064 29.2562 1.17136Z" fill="#FC3F1D"/>
<path d="M51.444 30.158C51.444 41.6469 42.1504 50.9605 30.6859 50.9605C19.2215 50.9605 9.92773 41.6469 9.92773 30.158C9.92773 18.6691 19.2215 9.35547 30.6859 9.35547C32.91 9.35547 35.0524 9.70596 37.0611 10.3549C36.897 10.8701 36.3472 11.1512 35.826 11.0111C34.1869 10.5702 32.4638 10.3352 30.6859 10.3352C19.7614 10.3352 10.9053 19.2102 10.9053 30.1581C10.9053 41.1059 19.7614 49.9812 30.6859 49.9812C41.6104 49.9812 50.4667 41.1059 50.4667 30.1581C50.4667 28.5202 50.2682 26.9288 49.8943 25.4065C49.7656 24.8814 50.0579 24.3364 50.5753 24.1829C51.1404 26.0753 51.444 28.0812 51.444 30.158Z" fill="white"/>
<path d="M33.0602 23.5068H31.3676C28.466 23.5068 27.0153 24.9743 27.0153 27.1755C27.0153 29.6213 27.9825 30.8442 30.1586 32.3117L31.8512 33.5346L27.0153 41.1166H23.1465L27.7406 34.2683C25.0809 32.3117 23.6301 30.5996 23.6301 27.4201C23.6301 23.5068 26.2898 20.8164 31.3676 20.8164H36.4454V41.1166H33.0602V23.5068Z" fill="white"/>
<path d="M43.6753 10.8287C43.7157 10.7498 43.8283 10.7498 43.8688 10.8287C45.2916 13.6039 47.5458 15.8629 50.3153 17.2888C50.3941 17.3294 50.3941 17.4422 50.3153 17.4828C47.5458 18.9087 45.2916 21.1677 43.8688 23.9428C43.8283 24.0218 43.7157 24.0218 43.6753 23.9428C42.2524 21.1677 39.9982 18.9087 37.229 17.4828C37.1502 17.4422 37.1502 17.3294 37.229 17.2888C39.9982 15.8629 42.2524 13.6039 43.6753 10.8287Z" fill="white"/>
<g filter="url(#filter0_df_630_8423)">
<path d="M48.0239 13.125L46.4782 17.3853L48.0239 21.6457L43.7727 20.0966L39.5215 21.6456L41.0673 17.3853L39.5215 13.125L43.7727 14.6741L48.0239 13.125Z" fill="#FC3F1D"/>
</g>
<path d="M47.516 13.51C47.5934 13.4817 47.6685 13.557 47.6403 13.6346L46.2916 17.352C46.2838 17.3734 46.2838 17.3969 46.2916 17.4184L47.6403 21.1358C47.6685 21.2134 47.5934 21.2886 47.516 21.2604L43.8065 19.9087C43.7851 19.9009 43.7617 19.9009 43.7402 19.9087L40.0308 21.2604C39.9533 21.2886 39.8783 21.2134 39.9064 21.1358L41.2552 17.4184C41.263 17.3969 41.263 17.3734 41.2552 17.352L39.9064 13.6346C39.8783 13.557 39.9533 13.4817 40.0308 13.51L43.7402 14.8616C43.7617 14.8694 43.7851 14.8694 43.8065 14.8616L47.516 13.51Z" fill="white"/>
</g>
<path d="M70.2995 18.1325C69.753 18.1325 69.2537 18.0513 68.8016 17.8891C68.3563 17.72 67.975 17.4833 67.6579 17.1791C67.3408 16.868 67.0945 16.4893 66.919 16.0431C66.7504 15.59 66.666 15.0795 66.666 14.5115C66.666 13.9435 66.747 13.4363 66.9089 12.9901C67.0709 12.537 67.307 12.1583 67.6174 11.8541C67.9278 11.543 68.3056 11.3063 68.751 11.1441C69.2031 10.975 69.7159 10.8905 70.2894 10.8905C70.7617 10.8905 71.1733 10.9344 71.5242 11.0223C71.8818 11.1103 72.1585 11.2286 72.3541 11.3773V12.3003C72.0977 12.1448 71.8042 12.0231 71.4736 11.9352C71.143 11.8473 70.7887 11.8033 70.4109 11.8033C69.5877 11.8033 68.9804 12.0366 68.589 12.5032C68.1977 12.963 68.002 13.6324 68.002 14.5115C68.002 15.3973 68.1943 16.0701 68.5789 16.5299C68.9635 16.9897 69.5742 17.2196 70.4109 17.2196C70.7887 17.2196 71.1396 17.1757 71.4635 17.0878C71.7873 16.9931 72.0842 16.8477 72.3541 16.6516V17.5848C72.172 17.7268 71.9054 17.8553 71.5546 17.9702C71.2037 18.0784 70.7853 18.1325 70.2995 18.1325ZM77.6453 17.5949C77.5036 17.7099 77.2809 17.8282 76.9773 17.9499C76.6804 18.0716 76.2992 18.1325 75.8336 18.1325C74.9092 18.1325 74.2142 17.8958 73.7486 17.4225C73.283 16.9424 73.0502 16.2899 73.0502 15.4649C73.0502 15.0524 73.111 14.6839 73.2324 14.3593C73.3606 14.028 73.5361 13.7474 73.7587 13.5175C73.9814 13.2876 74.2445 13.1118 74.5482 12.9901C74.8586 12.8683 75.1993 12.8075 75.5704 12.8075C75.955 12.8075 76.2992 12.8717 76.6028 13.0002C76.9064 13.1219 77.1561 13.3079 77.3518 13.5581C77.5474 13.8083 77.6824 14.1159 77.7566 14.4811C77.8308 14.8462 77.8308 15.2722 77.7566 15.7591H74.2446C74.2918 16.273 74.4503 16.655 74.7202 16.9052C74.9969 17.1554 75.4119 17.2805 75.9652 17.2805C76.3498 17.2805 76.677 17.2298 76.9469 17.1283C77.2236 17.0202 77.4564 16.9052 77.6453 16.7835V17.5949ZM75.5603 13.5581C75.2027 13.5581 74.9058 13.6832 74.6696 13.9333C74.4402 14.1835 74.3019 14.5588 74.2547 15.0592H76.6736C76.7006 14.5453 76.6095 14.1666 76.4004 13.9232C76.1912 13.6798 75.9112 13.5581 75.5603 13.5581ZM81.4745 18.1325C81.0899 18.1325 80.7592 18.048 80.4826 17.8789C80.2127 17.7099 79.99 17.48 79.8146 17.1892V19.8973H78.6304V12.9089H79.683L79.7842 13.8218C79.9529 13.5107 80.179 13.2639 80.4624 13.0813C80.7457 12.8988 81.0932 12.8075 81.5048 12.8075C81.8017 12.8075 82.0851 12.8616 82.355 12.9698C82.6249 13.078 82.8611 13.2436 83.0635 13.4668C83.2727 13.6832 83.438 13.957 83.5594 14.2883C83.6809 14.6197 83.7416 15.0119 83.7416 15.4649C83.7416 15.9112 83.6775 16.3034 83.5493 16.6415C83.4279 16.9728 83.2626 17.2501 83.0534 17.4732C82.851 17.6963 82.6114 17.862 82.3348 17.9702C82.0649 18.0784 81.7781 18.1325 81.4745 18.1325ZM81.1911 17.3312C81.5824 17.3312 81.9029 17.1824 82.1526 16.8849C82.4022 16.5874 82.5271 16.1141 82.5271 15.4649C82.5271 14.8225 82.4022 14.3526 82.1526 14.0551C81.9029 13.7575 81.5824 13.6088 81.1911 13.6088C80.9954 13.6088 80.8132 13.646 80.6445 13.7203C80.4758 13.788 80.3274 13.8995 80.1992 14.0551C80.0777 14.2038 79.9799 14.3965 79.9057 14.6332C79.8382 14.8631 79.8045 15.1403 79.8045 15.4649C79.8045 15.7963 79.8382 16.0803 79.9057 16.3169C79.9799 16.5468 80.0777 16.7395 80.1992 16.8951C80.3274 17.0438 80.4758 17.1554 80.6445 17.2298C80.8132 17.2974 80.9954 17.3312 81.1911 17.3312ZM86.8213 13.7305V18.0311H85.627V13.7305H84.0683V12.9089H88.4002V13.7305H86.8213ZM90.3114 16.5806L92.8518 12.9089H93.9146V18.0311H92.7506V14.3492L90.2203 18.0311H89.1475V12.9089H90.3114V16.5806ZM101.516 15.4751C101.516 15.8943 101.445 16.2628 101.304 16.5806C101.162 16.8984 100.963 17.1655 100.706 17.3819C100.457 17.5983 100.16 17.7673 99.8158 17.8891C99.4784 18.0108 99.1141 18.0818 98.7227 18.1021V19.9278H97.5588V18.1021C97.1539 18.075 96.7794 18.0006 96.4353 17.8789C96.0979 17.7572 95.8044 17.5882 95.5548 17.3718C95.3051 17.1554 95.1094 16.8883 94.9677 16.5705C94.826 16.2527 94.7552 15.8875 94.7552 15.4751C94.7552 15.0626 94.826 14.6974 94.9677 14.3796C95.1094 14.0618 95.3051 13.7947 95.5548 13.5783C95.8044 13.3552 96.1013 13.1828 96.4454 13.0611C96.7896 12.9393 97.1607 12.8683 97.5588 12.8481V10.7891H98.7227V12.8481C99.1208 12.8751 99.4885 12.9495 99.8259 13.0712C100.17 13.1929 100.467 13.362 100.717 13.5783C100.966 13.7947 101.162 14.0618 101.304 14.3796C101.445 14.6974 101.516 15.0626 101.516 15.4751ZM95.9394 15.4751C95.9394 15.7591 95.9799 16.0126 96.0608 16.2358C96.1418 16.4589 96.2531 16.6483 96.3948 16.8038C96.5433 16.9525 96.7153 17.0709 96.911 17.1588C97.1134 17.2399 97.3294 17.2873 97.5588 17.3008V13.6493C97.3294 13.6696 97.1134 13.7237 96.911 13.8116C96.7153 13.8928 96.5433 14.0111 96.3948 14.1666C96.2531 14.3154 96.1418 14.5013 96.0608 14.7245C95.9799 14.9409 95.9394 15.1911 95.9394 15.4751ZM100.322 15.4751C100.322 15.1911 100.281 14.9409 100.2 14.7245C100.119 14.5013 100.008 14.3154 99.8664 14.1666C99.7247 14.0111 99.556 13.8928 99.3603 13.8116C99.1647 13.7237 98.9521 13.6696 98.7227 13.6493V17.3008C98.9521 17.2805 99.1647 17.2298 99.3603 17.1486C99.556 17.0607 99.7247 16.9424 99.8664 16.7936C100.008 16.6381 100.119 16.4522 100.2 16.2358C100.281 16.0126 100.322 15.7591 100.322 15.4751ZM103.517 16.5806L106.057 12.9089H107.12V18.0311H105.956V14.3492L103.426 18.0311H102.353V12.9089H103.517V16.5806ZM112.485 18.0311H108.234V12.9089H109.418V17.2501H111.604V12.9089H112.788V17.2501H113.558V19.6438H112.687L112.485 18.0311ZM115.377 16.5806L117.918 12.9089H118.98V18.0311H117.816V14.3492L115.286 18.0311H114.213V12.9089H115.377V16.5806ZM122.918 18.1325C122.533 18.1325 122.203 18.048 121.926 17.8789C121.656 17.7099 121.434 17.48 121.258 17.1892V19.8973H120.074V12.9089H121.127L121.228 13.8218C121.396 13.5107 121.623 13.2639 121.906 13.0813C122.189 12.8988 122.537 12.8075 122.948 12.8075C123.245 12.8075 123.529 12.8616 123.799 12.9698C124.068 13.078 124.305 13.2436 124.507 13.4668C124.716 13.6832 124.882 13.957 125.003 14.2883C125.124 14.6197 125.185 15.0119 125.185 15.4649C125.185 15.9112 125.121 16.3034 124.993 16.6415C124.871 16.9728 124.706 17.2501 124.497 17.4732C124.295 17.6963 124.055 17.862 123.778 17.9702C123.508 18.0784 123.222 18.1325 122.918 18.1325ZM122.635 17.3312C123.026 17.3312 123.346 17.1824 123.596 16.8849C123.846 16.5874 123.971 16.1141 123.971 15.4649C123.971 14.8225 123.846 14.3526 123.596 14.0551C123.346 13.7575 123.026 13.6088 122.635 13.6088C122.439 13.6088 122.257 13.646 122.088 13.7203C121.919 13.788 121.771 13.8995 121.643 14.0551C121.521 14.2038 121.423 14.3965 121.349 14.6332C121.282 14.8631 121.248 15.1403 121.248 15.4649C121.248 15.7963 121.282 16.0803 121.349 16.3169C121.423 16.5468 121.521 16.7395 121.643 16.8951C121.771 17.0438 121.919 17.1554 122.088 17.2298C122.257 17.2974 122.439 17.3312 122.635 17.3312ZM128.332 18.1325C127.968 18.1325 127.627 18.075 127.31 17.9601C127 17.8383 126.726 17.6659 126.49 17.4428C126.261 17.2129 126.079 16.9323 125.944 16.6009C125.816 16.2696 125.751 15.8909 125.751 15.4649C125.751 15.0389 125.816 14.6603 125.944 14.3289C126.079 13.9976 126.261 13.7203 126.49 13.4972C126.726 13.2673 127 13.0949 127.31 12.9799C127.627 12.865 127.968 12.8075 128.332 12.8075C128.697 12.8075 129.037 12.865 129.355 12.9799C129.678 13.0949 129.955 13.2673 130.184 13.4972C130.421 13.7203 130.606 13.9976 130.741 14.3289C130.876 14.6603 130.944 15.0389 130.944 15.4649C130.944 15.8909 130.876 16.2696 130.741 16.6009C130.606 16.9323 130.421 17.2129 130.184 17.4428C129.955 17.6659 129.682 17.8383 129.365 17.9601C129.048 18.075 128.703 18.1325 128.332 18.1325ZM128.332 17.3312C128.535 17.3312 128.72 17.2974 128.889 17.2298C129.064 17.1622 129.213 17.054 129.334 16.9052C129.463 16.7564 129.56 16.5637 129.628 16.3271C129.702 16.0904 129.739 15.803 129.739 15.4649C129.739 15.1268 129.702 14.8394 129.628 14.6028C129.56 14.3661 129.463 14.1768 129.334 14.0348C129.213 13.886 129.064 13.7778 128.889 13.7102C128.72 13.6426 128.535 13.6088 128.332 13.6088C128.137 13.6088 127.954 13.6426 127.786 13.7102C127.617 13.7778 127.472 13.886 127.351 14.0348C127.229 14.1768 127.131 14.3661 127.057 14.6028C126.99 14.8394 126.956 15.1268 126.956 15.4649C126.956 15.803 126.99 16.0904 127.057 16.3271C127.131 16.5637 127.229 16.7564 127.351 16.9052C127.472 17.054 127.617 17.1622 127.786 17.2298C127.954 17.2974 128.137 17.3312 128.332 17.3312ZM131.787 12.9089H133.943C134.577 12.9089 135.053 13.0137 135.37 13.2233C135.687 13.433 135.846 13.7677 135.846 14.2275C135.846 14.5318 135.765 14.7786 135.603 14.9679C135.441 15.1505 135.215 15.279 134.925 15.3533C135.68 15.4751 136.058 15.8774 136.058 16.5603C136.058 16.8173 136.008 17.0371 135.906 17.2196C135.805 17.4022 135.66 17.5543 135.471 17.6761C135.282 17.7978 135.056 17.8891 134.793 17.9499C134.537 18.004 134.246 18.0311 133.923 18.0311H131.787V12.9089ZM132.941 13.6189V15.0592H133.73C134.027 15.0592 134.26 14.9983 134.429 14.8766C134.604 14.7549 134.692 14.5893 134.692 14.3796C134.692 14.0956 134.614 13.8995 134.459 13.7913C134.304 13.6764 134.081 13.6189 133.791 13.6189H132.941ZM132.941 15.7388V17.3211H133.791C134.115 17.3211 134.371 17.2636 134.56 17.1486C134.756 17.0269 134.854 16.8139 134.854 16.5096C134.854 16.2324 134.766 16.0363 134.591 15.9213C134.415 15.7996 134.149 15.7388 133.791 15.7388H132.941ZM139.976 18.0311C139.901 17.8214 139.854 17.551 139.834 17.2196C139.78 17.3278 139.706 17.436 139.611 17.5442C139.524 17.6524 139.412 17.7504 139.277 17.8383C139.149 17.9263 138.994 17.9973 138.812 18.0513C138.636 18.1054 138.427 18.1325 138.184 18.1325C137.955 18.1325 137.742 18.1021 137.547 18.0412C137.358 17.9871 137.192 17.9026 137.051 17.7876C136.909 17.6659 136.798 17.5138 136.717 17.3312C136.636 17.1486 136.595 16.9356 136.595 16.6922C136.595 16.158 136.811 15.7489 137.243 15.4649C137.681 15.1809 138.38 15.0389 139.338 15.0389H139.793V14.6332C139.793 14.3019 139.709 14.0584 139.54 13.9029C139.372 13.7406 139.075 13.6595 138.65 13.6595C138.306 13.6595 137.982 13.7102 137.678 13.8116C137.381 13.9131 137.132 14.0415 136.929 14.1971V13.3653C137.084 13.2098 137.327 13.078 137.658 12.9698C137.989 12.8616 138.373 12.8075 138.812 12.8075C139.507 12.8075 140.04 12.9461 140.411 13.2233C140.789 13.4938 140.978 13.9333 140.978 14.5419V17.2095C140.978 17.3244 140.981 17.4698 140.988 17.6456C141.001 17.8147 141.018 17.9432 141.038 18.0311H139.976ZM138.569 17.3616C138.764 17.3616 138.937 17.3278 139.085 17.2602C139.24 17.1926 139.368 17.1047 139.47 16.9965C139.578 16.8883 139.659 16.77 139.712 16.6415C139.766 16.5063 139.793 16.371 139.793 16.2358V15.6576H139.389C139.078 15.6576 138.818 15.6779 138.609 15.7185C138.4 15.7523 138.231 15.8064 138.103 15.8808C137.982 15.9552 137.894 16.0498 137.84 16.1648C137.793 16.2797 137.769 16.415 137.769 16.5705C137.769 16.8477 137.84 17.0506 137.982 17.1791C138.13 17.3008 138.326 17.3616 138.569 17.3616ZM145.397 15.7895H143.211V18.0311H142.027V12.9089H143.211V15.0186H145.397V12.9089H146.571V18.0311H145.397V15.7895ZM151.061 15.7895H148.875V18.0311H147.691V12.9089H148.875V15.0186H151.061V12.9089H152.235V18.0311H151.061V15.7895ZM159.295 18.0311H158.121V12.9089H159.295V18.0311ZM157.484 16.2763C157.484 16.5739 157.43 16.8342 157.322 17.0573C157.214 17.2737 157.062 17.4563 156.866 17.6051C156.671 17.7471 156.438 17.8553 156.168 17.9296C155.898 17.9973 155.601 18.0311 155.277 18.0311H153.354V12.9089H154.538V14.5926H155.318C156.006 14.5926 156.539 14.7313 156.917 15.0085C157.295 15.279 157.484 15.7016 157.484 16.2763ZM154.538 15.3331V17.2906H155.186C155.517 17.2906 155.783 17.2163 155.986 17.0675C156.188 16.9187 156.289 16.6685 156.289 16.3169C156.289 15.9721 156.195 15.7219 156.006 15.5663C155.824 15.4108 155.564 15.3331 155.227 15.3331H154.538ZM162.83 12.4322C162.297 12.4322 161.899 12.3071 161.636 12.0569C161.38 11.8 161.252 11.4855 161.252 11.1136H162.264C162.264 11.3503 162.311 11.5227 162.405 11.6309C162.507 11.7323 162.648 11.7831 162.83 11.7831C163.006 11.7831 163.144 11.7323 163.245 11.6309C163.347 11.5227 163.397 11.3503 163.397 11.1136H164.389C164.389 11.4855 164.261 11.8 164.005 12.0569C163.748 12.3071 163.357 12.4322 162.83 12.4322ZM161.575 16.5806L164.116 12.9089H165.179V18.0311H164.015V14.3492L161.484 18.0311H160.411V12.9089H161.575V16.5806ZM66.8988 25.3057H71.3319V30.4279H70.1477V26.0867H68.083V30.4279H66.8988V25.3057ZM75.5811 30.4279C75.5069 30.2183 75.4597 29.9478 75.4394 29.6165C75.3854 29.7246 75.3112 29.8328 75.2168 29.941C75.129 30.0492 75.0177 30.1473 74.8827 30.2352C74.7545 30.3231 74.5994 30.3941 74.4172 30.4482C74.2417 30.5023 74.0326 30.5293 73.7897 30.5293C73.5602 30.5293 73.3477 30.4989 73.152 30.438C72.9631 30.3839 72.7978 30.2994 72.6561 30.1845C72.5144 30.0627 72.4031 29.9106 72.3221 29.728C72.2411 29.5455 72.2006 29.3325 72.2006 29.089C72.2006 28.5548 72.4165 28.1457 72.8484 27.8617C73.287 27.5777 73.9853 27.4357 74.9435 27.4357H75.3989V27.03C75.3989 26.6987 75.3146 26.4553 75.1459 26.2997C74.9772 26.1375 74.6803 26.0563 74.2552 26.0563C73.9111 26.0563 73.5872 26.107 73.2836 26.2085C72.9867 26.3099 72.7371 26.4384 72.5346 26.5939V25.7622C72.6898 25.6067 72.9327 25.4748 73.2634 25.3666C73.594 25.2584 73.9786 25.2043 74.4172 25.2043C75.1122 25.2043 75.6452 25.3429 76.0163 25.6202C76.3942 25.8906 76.5831 26.3302 76.5831 26.9387V29.6063C76.5831 29.7213 76.5865 29.8667 76.5932 30.0425C76.6067 30.2115 76.6236 30.34 76.6438 30.4279H75.5811ZM74.1743 29.7585C74.3699 29.7585 74.542 29.7247 74.6904 29.657C74.8456 29.5894 74.9738 29.5015 75.0751 29.3933C75.183 29.2851 75.264 29.1668 75.318 29.0383C75.3719 28.9031 75.3989 28.7678 75.3989 28.6326V28.0545H74.9941C74.6837 28.0545 74.4239 28.0747 74.2148 28.1153C74.0056 28.1491 73.8369 28.2032 73.7087 28.2776C73.5872 28.352 73.4995 28.4467 73.4455 28.5616C73.3983 28.6766 73.3747 28.8118 73.3747 28.9673C73.3747 29.2446 73.4455 29.4474 73.5872 29.5759C73.7357 29.6976 73.9314 29.7585 74.1743 29.7585ZM80.4567 30.5293C80.0721 30.5293 79.7415 30.4448 79.4648 30.2757C79.1949 30.1067 78.9723 29.8768 78.7968 29.586V32.2942H77.6127V25.3057H78.6653L78.7665 26.2186C78.9352 25.9076 79.1612 25.6607 79.4446 25.4782C79.728 25.2956 80.0755 25.2043 80.4871 25.2043C80.784 25.2043 81.0674 25.2584 81.3373 25.3666C81.6072 25.4748 81.8433 25.6405 82.0458 25.8636C82.2549 26.08 82.4202 26.3538 82.5417 26.6852C82.6632 27.0165 82.7239 27.4087 82.7239 27.8617C82.7239 28.308 82.6598 28.7002 82.5316 29.0383C82.4101 29.3696 82.2448 29.6469 82.0356 29.87C81.8332 30.0932 81.5937 30.2588 81.317 30.367C81.0471 30.4752 80.7604 30.5293 80.4567 30.5293ZM80.1733 29.728C80.5647 29.728 80.8852 29.5793 81.1348 29.2817C81.3845 28.9842 81.5093 28.5109 81.5093 27.8617C81.5093 27.2194 81.3845 26.7494 81.1348 26.4519C80.8852 26.1544 80.5647 26.0056 80.1733 26.0056C79.9777 26.0056 79.7955 26.0428 79.6268 26.1172C79.4581 26.1848 79.3097 26.2964 79.1815 26.4519C79.06 26.6007 78.9622 26.7934 78.8879 27.03C78.8205 27.2599 78.7867 27.5372 78.7867 27.8617C78.7867 28.1931 78.8205 28.4771 78.8879 28.7137C78.9622 28.9437 79.06 29.1364 79.1815 29.2919C79.3097 29.4407 79.4581 29.5522 79.6268 29.6266C79.7955 29.6942 79.9777 29.728 80.1733 29.728ZM85.8035 26.1273V30.4279H84.6092V26.1273H83.0506V25.3057H87.3825V26.1273H85.8035ZM91.5001 28.1863H89.3139V30.4279H88.1297V25.3057H89.3139V27.4155H91.5001V25.3057H92.6742V30.4279H91.5001V28.1863ZM98.1149 29.9917C97.9732 30.1067 97.7505 30.225 97.4469 30.3467C97.15 30.4685 96.7687 30.5293 96.3032 30.5293C95.3788 30.5293 94.6838 30.2927 94.2182 29.8193C93.7526 29.3392 93.5198 28.6867 93.5198 27.8617C93.5198 27.4493 93.5806 27.0807 93.702 26.7562C93.8302 26.4248 94.0057 26.1442 94.2283 25.9143C94.451 25.6844 94.7141 25.5086 95.0178 25.3869C95.3282 25.2652 95.6689 25.2043 96.04 25.2043C96.4246 25.2043 96.7687 25.2686 97.0724 25.397C97.376 25.5187 97.6257 25.7047 97.8214 25.9549C98.017 26.2051 98.152 26.5127 98.2262 26.8779C98.3004 27.243 98.3004 27.669 98.2262 28.1559H94.7141C94.7614 28.6698 94.9199 29.0518 95.1898 29.302C95.4665 29.5522 95.8815 29.6773 96.4348 29.6773C96.8194 29.6773 97.1466 29.6266 97.4165 29.5252C97.6932 29.417 97.9259 29.302 98.1149 29.1803V29.9917ZM96.0299 25.9549C95.6723 25.9549 95.3754 26.08 95.1392 26.3302C94.9098 26.5804 94.7715 26.9556 94.7243 27.456H97.1432C97.1702 26.9421 97.0791 26.5635 96.87 26.32C96.6608 26.0766 96.3808 25.9549 96.0299 25.9549ZM94.9469 24.6363C94.758 24.6363 94.5994 24.5788 94.4712 24.4639C94.343 24.3422 94.2789 24.1833 94.2789 23.9872C94.2789 23.7911 94.343 23.6322 94.4712 23.5105C94.5994 23.3887 94.758 23.3279 94.9469 23.3279C95.1426 23.3279 95.3045 23.3887 95.4327 23.5105C95.5677 23.6322 95.6352 23.7911 95.6352 23.9872C95.6352 24.1833 95.5677 24.3422 95.4327 24.4639C95.3045 24.5788 95.1426 24.6363 94.9469 24.6363ZM97.1432 24.6363C96.9476 24.6363 96.7856 24.5788 96.6574 24.4639C96.536 24.3422 96.4752 24.1833 96.4752 23.9872C96.4752 23.7911 96.536 23.6322 96.6574 23.5105C96.7856 23.3887 96.9476 23.3279 97.1432 23.3279C97.3389 23.3279 97.4975 23.3887 97.6189 23.5105C97.7471 23.6322 97.8112 23.7911 97.8112 23.9872C97.8112 24.1833 97.7471 24.3422 97.6189 24.4639C97.4975 24.5788 97.3389 24.6363 97.1432 24.6363ZM101.945 30.5293C101.56 30.5293 101.229 30.4448 100.953 30.2757C100.683 30.1067 100.46 29.8768 100.285 29.586V32.2942H99.1006V25.3057H100.153L100.254 26.2186C100.423 25.9076 100.649 25.6607 100.933 25.4782C101.216 25.2956 101.563 25.2043 101.975 25.2043C102.272 25.2043 102.555 25.2584 102.825 25.3666C103.095 25.4748 103.331 25.6405 103.534 25.8636C103.743 26.08 103.908 26.3538 104.03 26.6852C104.151 27.0165 104.212 27.4087 104.212 27.8617C104.212 28.308 104.148 28.7002 104.019 29.0383C103.898 29.3696 103.733 29.6469 103.524 29.87C103.321 30.0932 103.082 30.2588 102.805 30.367C102.535 30.4752 102.248 30.5293 101.945 30.5293ZM101.661 29.728C102.053 29.728 102.373 29.5793 102.623 29.2817C102.872 28.9842 102.997 28.5109 102.997 27.8617C102.997 27.2194 102.872 26.7494 102.623 26.4519C102.373 26.1544 102.053 26.0056 101.661 26.0056C101.466 26.0056 101.283 26.0428 101.115 26.1172C100.946 26.1848 100.798 26.2964 100.669 26.4519C100.548 26.6007 100.45 26.7934 100.376 27.03C100.308 27.2599 100.275 27.5372 100.275 27.8617C100.275 28.1931 100.308 28.4771 100.376 28.7137C100.45 28.9437 100.548 29.1364 100.669 29.2919C100.798 29.4407 100.946 29.5522 101.115 29.6266C101.283 29.6942 101.466 29.728 101.661 29.728ZM107.079 25.539C107.079 25.1671 107.143 24.8459 107.271 24.5755C107.406 24.305 107.595 24.0818 107.838 23.906C108.081 23.7235 108.371 23.5916 108.708 23.5105C109.046 23.4226 109.42 23.3786 109.832 23.3786H112.16V30.4279H110.915V27.74H109.801L108.02 30.4279H106.583L108.597 27.5067C108.098 27.3715 107.72 27.1416 107.464 26.817C107.207 26.4925 107.079 26.0665 107.079 25.539ZM110.915 26.888V24.2306H109.842C109.619 24.2306 109.417 24.2543 109.235 24.3016C109.053 24.3489 108.894 24.4267 108.759 24.5349C108.631 24.6363 108.53 24.7716 108.455 24.9406C108.388 25.1029 108.354 25.3024 108.354 25.539C108.354 25.9988 108.476 26.3403 108.719 26.5635C108.961 26.7798 109.309 26.888 109.761 26.888H110.915ZM116.724 28.1863H114.538V30.4279H113.353V25.3057H114.538V27.4155H116.724V25.3057H117.898V30.4279H116.724V28.1863ZM119.32 29.0485C119.455 28.6901 119.543 28.2032 119.584 27.5879C119.624 26.9726 119.654 26.2118 119.675 25.3057H123.47V29.6469H124.239V32.0406H123.369L123.167 30.4279H119.523L119.32 32.0406H118.45V29.6469H118.926C119.088 29.5184 119.219 29.3189 119.32 29.0485ZM120.252 29.2615C120.218 29.3358 120.184 29.4068 120.15 29.4745C120.123 29.5353 120.093 29.5928 120.059 29.6469H122.286V26.0867H120.626C120.606 26.8441 120.569 27.4797 120.515 27.9936C120.468 28.5075 120.38 28.9301 120.252 29.2615ZM129.102 29.9917C128.96 30.1067 128.737 30.225 128.434 30.3467C128.137 30.4685 127.755 30.5293 127.29 30.5293C126.365 30.5293 125.67 30.2927 125.205 29.8193C124.739 29.3392 124.506 28.6867 124.506 27.8617C124.506 27.4493 124.567 27.0807 124.689 26.7562C124.817 26.4248 124.992 26.1442 125.215 25.9143C125.438 25.6844 125.701 25.5086 126.004 25.3869C126.315 25.2652 126.656 25.2043 127.027 25.2043C127.411 25.2043 127.755 25.2686 128.059 25.397C128.363 25.5187 128.612 25.7047 128.808 25.9549C129.004 26.2051 129.139 26.5127 129.213 26.8779C129.287 27.243 129.287 27.669 129.213 28.1559H125.701C125.748 28.6698 125.907 29.0518 126.176 29.302C126.453 29.5522 126.868 29.6773 127.421 29.6773C127.806 29.6773 128.133 29.6266 128.403 29.5252C128.68 29.417 128.913 29.302 129.102 29.1803V29.9917ZM127.017 25.9549C126.659 25.9549 126.362 26.08 126.126 26.3302C125.896 26.5804 125.758 26.9556 125.71 27.456H128.13C128.157 26.9421 128.066 26.5635 127.857 26.32C127.647 26.0766 127.367 25.9549 127.017 25.9549ZM131.291 25.3057V30.4279H130.107V25.3057H131.291ZM132.607 27.7197L134.712 30.4279H133.315L131.362 27.9125L133.498 25.3057H134.621L132.607 27.7197ZM137.517 30.5293C137.105 30.5293 136.734 30.4718 136.403 30.3569C136.08 30.2352 135.8 30.0594 135.563 29.8295C135.334 29.5996 135.155 29.3189 135.027 28.9876C134.905 28.6563 134.845 28.281 134.845 27.8617C134.845 27.4425 134.905 27.0706 135.027 26.746C135.155 26.4147 135.337 26.1341 135.573 25.9042C135.81 25.6743 136.093 25.5018 136.424 25.3869C136.754 25.2652 137.129 25.2043 137.547 25.2043C137.898 25.2043 138.205 25.2449 138.468 25.326C138.738 25.4072 138.954 25.512 139.116 25.6405V26.462C138.698 26.1916 138.208 26.0563 137.648 26.0563C136.589 26.0563 136.059 26.6581 136.059 27.8617C136.059 29.0721 136.579 29.6773 137.618 29.6773C137.922 29.6773 138.195 29.6401 138.438 29.5657C138.687 29.4914 138.913 29.3899 139.116 29.2615V30.083C138.947 30.2183 138.731 30.3265 138.468 30.4076C138.205 30.4887 137.888 30.5293 137.517 30.5293ZM143 30.4279C142.926 30.2183 142.879 29.9478 142.858 29.6165C142.805 29.7246 142.73 29.8328 142.636 29.941C142.548 30.0492 142.437 30.1473 142.302 30.2352C142.174 30.3231 142.018 30.3941 141.836 30.4482C141.661 30.5023 141.452 30.5293 141.209 30.5293C140.979 30.5293 140.767 30.4989 140.571 30.438C140.382 30.3839 140.217 30.2994 140.075 30.1845C139.933 30.0627 139.822 29.9106 139.741 29.728C139.66 29.5455 139.62 29.3325 139.62 29.089C139.62 28.5548 139.836 28.1457 140.267 27.8617C140.706 27.5777 141.404 27.4357 142.363 27.4357H142.818V27.03C142.818 26.6987 142.734 26.4553 142.565 26.2997C142.396 26.1375 142.099 26.0563 141.674 26.0563C141.33 26.0563 141.006 26.107 140.703 26.2085C140.406 26.3099 140.156 26.4384 139.954 26.5939V25.7622C140.109 25.6067 140.352 25.4748 140.682 25.3666C141.013 25.2584 141.398 25.2043 141.836 25.2043C142.531 25.2043 143.064 25.3429 143.435 25.6202C143.813 25.8906 144.002 26.3302 144.002 26.9387V29.6063C144.002 29.7213 144.006 29.8667 144.012 30.0425C144.026 30.2115 144.043 30.34 144.063 30.4279H143ZM141.593 29.7585C141.789 29.7585 141.961 29.7247 142.11 29.657C142.265 29.5894 142.393 29.5015 142.494 29.3933C142.602 29.2851 142.683 29.1668 142.737 29.0383C142.791 28.9031 142.818 28.7678 142.818 28.6326V28.0545H142.413C142.103 28.0545 141.843 28.0747 141.634 28.1153C141.425 28.1491 141.256 28.2032 141.128 28.2776C141.006 28.352 140.919 28.4467 140.865 28.5616C140.817 28.6766 140.794 28.8118 140.794 28.9673C140.794 29.2446 140.865 29.4474 141.006 29.5759C141.155 29.6976 141.35 29.7585 141.593 29.7585Z" fill="#27292D"/>
<path d="M75.8699 46.1113L76.9478 43.6973H77.7069V47.3335H77.0895V44.6L76.1128 46.7756L75.7737 46.7807H75.5561L74.5996 44.5645V47.3335H74.043V43.6973H74.8628L75.8699 46.1113ZM78.9872 43.6973H81.3252V44.2298H79.5995V45.1883H81.062V45.7157H79.5995V46.8061H81.3505V47.3335H78.9872V43.6973ZM83.9747 44.2298V47.3335H83.3573V44.2298H82.2541V43.6973H85.0728V44.2298H83.9747ZM86.0973 43.6973H87.2815C87.7201 43.6973 88.0608 43.7852 88.3038 43.961C88.5467 44.1368 88.6681 44.4157 88.6681 44.7978C88.6681 45.0074 88.6344 45.1883 88.5669 45.3404C88.4994 45.4926 88.4033 45.6176 88.2785 45.7157C88.157 45.8137 88.0086 45.8864 87.8331 45.9338C87.6611 45.9777 87.4688 45.9997 87.2562 45.9997H86.7097V47.3335H86.0973V43.6973ZM86.7097 44.2298V45.4723H87.2562C87.5025 45.4723 87.6965 45.4232 87.8382 45.3252C87.9799 45.2271 88.0507 45.0581 88.0507 44.8181C88.0507 44.6118 87.9849 44.4631 87.8534 44.3718C87.7252 44.2771 87.5345 44.2298 87.2815 44.2298H86.7097ZM89.737 47.3335V43.6973H90.3494V46.4612L92.1864 43.6973H92.824V47.3335H92.2016V44.5797L90.3747 47.3335H89.737ZM95.0692 45.8222H94.715V47.3335H94.1026V43.6973H94.715V45.2948H95.0793L96.2534 43.6973H96.9113L95.5652 45.5128L96.967 47.3335H96.2281L95.0692 45.8222ZM98.9114 43.6973H99.716L101.001 47.3335H100.369L100.035 46.3801H98.5065L98.1725 47.3335H97.631L98.9114 43.6973ZM99.8476 45.8526L99.2707 44.2146L98.6937 45.8526H99.8476Z" fill="#27292D"/>
<path d="M73.9335 38.8747H100.923V37.7578H73.9335V38.8747ZM100.923 51.8451H73.9335V52.962H100.923V51.8451ZM73.9335 51.8451C70.3596 51.8451 67.4621 48.9414 67.4621 45.3599H66.3477C66.3477 49.5585 69.7439 52.962 73.9335 52.962V51.8451ZM107.395 45.3599C107.395 48.9414 104.497 51.8451 100.923 51.8451V52.962C105.113 52.962 108.509 49.5585 108.509 45.3599H107.395ZM100.923 38.8747C104.497 38.8747 107.395 41.7782 107.395 45.3599H108.509C108.509 41.1614 105.113 37.7578 100.923 37.7578V38.8747ZM73.9335 37.7578C69.7439 37.7578 66.3477 41.1614 66.3477 45.3599H67.4621C67.4621 41.7782 70.3596 38.8747 73.9335 38.8747V37.7578Z" fill="#9BA6BB"/>
<defs>
<filter id="filter0_df_630_8423" x="34.8063" y="8.40984" width="17.9323" height="17.9518" filterUnits="userSpaceOnUse" color-interpolation-filters="sRGB">
<feFlood flood-opacity="0" result="BackgroundImageFix"/>
<feColorMatrix in="SourceAlpha" type="matrix" values="0 0 0 0 0 0 0 0 0 0 0 0 0 0 0 0 0 0 127 0" result="hardAlpha"/>
<feOffset/>
<feGaussianBlur stdDeviation="2.35758"/>
<feColorMatrix type="matrix" values="0 0 0 0 1 0 0 0 0 0 0 0 0 0 0 0 0 0 1 0"/>
<feBlend mode="normal" in2="BackgroundImageFix" result="effect1_dropShadow_630_8423"/>
<feBlend mode="normal" in="SourceGraphic" in2="effect1_dropShadow_630_8423" result="shape"/>
<feGaussianBlur stdDeviation="0.884094" result="effect2_foregroundBlur_630_8423"/>
</filter>
</defs>
</svg>
