<svg width="86" height="48" viewBox="0 0 86 48" fill="none" xmlns="http://www.w3.org/2000/svg">
<g style="mix-blend-mode:difference" clip-path="url(#clip0_1107_661)">
<path d="M16.3431 37.0401C16.9693 37.8701 17.2915 38.8812 17.2578 39.911C17.2578 41.5184 16.6173 42.7543 15.3363 43.6185C14.0553 44.4828 12.1873 44.9149 9.73226 44.9149H0V26.5703H9.19473C11.4895 26.5703 13.2498 26.9986 14.4757 27.8552C15.0596 28.2378 15.5345 28.7581 15.8564 29.3677C16.1784 29.9774 16.3368 30.6566 16.3171 31.342C16.3351 32.1765 16.1098 32.9987 15.6674 33.7132C15.225 34.4277 14.5838 35.0051 13.818 35.3783C14.8175 35.6607 15.7007 36.242 16.3431 37.0401ZM4.31917 29.7675V34.0911H8.65247C9.72755 34.0911 10.5432 33.908 11.0997 33.5418C11.3713 33.3646 11.591 33.1217 11.7373 32.8368C11.8836 32.5519 11.9515 32.2348 11.9343 31.9168C11.9521 31.6007 11.8844 31.2857 11.7379 31.0033C11.5914 30.7209 11.3713 30.481 11.0997 30.3077C10.5432 29.9492 9.72833 29.7698 8.65483 29.7698L4.31917 29.7675ZM11.9933 41.1683C12.5747 40.8021 12.8663 40.2343 12.8679 39.4651C12.8679 37.945 11.7119 37.1849 9.39983 37.1849H4.32859V41.7176H9.40927C10.5551 41.7192 11.4195 41.5361 12.0027 41.1683H11.9933Z" fill="white"/>
<path d="M38.2197 26.3995V36.5131C38.2197 37.6623 38.1113 38.9518 37.4818 39.9609C36.8523 40.9699 35.7654 41.4319 34.5889 41.4319C33.8043 41.4661 33.0324 41.23 32.4082 40.7653C32.6042 40.6109 32.7808 40.4342 32.9339 40.239C33.7473 39.2185 33.8769 37.7497 33.8769 36.5061V26.3926L38.2197 26.3995Z" fill="white"/>
<path d="M56.0178 44.918L52.3894 39.8084H48.3815V44.918H44.0293V26.571H52.1749C53.6646 26.5377 55.1445 26.8151 56.5153 27.3848C57.6673 27.8667 58.6504 28.6654 59.3444 29.6833C60.0253 30.7416 60.3714 31.9719 60.3393 33.2207C60.3927 34.4598 60.0495 35.6843 59.3571 36.7247C58.6648 37.765 57.6575 38.5695 56.4751 39.0268L60.6954 44.9225L56.0178 44.918ZM54.9168 30.8578C54.2347 30.3077 53.2397 30.0326 51.9321 30.0326H48.3838V36.4272H51.9321C53.2397 36.4272 54.2347 36.1476 54.9168 35.5882C55.5989 35.0289 55.9392 34.2429 55.9377 33.23C55.9377 32.191 55.5966 31.4003 54.9144 30.8578H54.9168Z" fill="white"/>
<path d="M69.9957 44C68.4718 43.2192 67.1978 42.0448 66.3131 40.605C65.4412 39.1258 64.9824 37.4496 64.9824 35.7436C64.9824 34.0376 65.4412 32.3614 66.3131 30.8822C67.1982 29.4434 68.4721 28.2696 69.9957 27.4896C71.6301 26.6798 73.4375 26.2578 75.2709 26.2578C77.1042 26.2578 78.9116 26.6798 80.546 27.4896C82.0803 28.2879 83.3632 29.4776 84.2578 30.9316C85.1523 32.3856 85.6248 34.0493 85.6248 35.7448C85.6248 37.4403 85.1523 39.1039 84.2578 40.5579C83.3632 42.0119 82.0803 43.2016 80.546 44C78.9116 44.8095 77.1042 45.2315 75.2709 45.2315C73.4376 45.2315 71.6301 44.8095 69.9957 44ZM78.2874 40.8648C79.1796 40.3764 79.9143 39.6553 80.4093 38.7823C80.9123 37.8441 81.175 36.8011 81.175 35.7425C81.175 34.6838 80.9123 33.6409 80.4093 32.7027C79.9144 31.8296 79.1797 31.1084 78.2874 30.6202C77.3636 30.1299 76.3286 29.8731 75.2767 29.8731C74.225 29.8731 73.1898 30.1299 72.2661 30.6202C71.3737 31.1081 70.6388 31.8294 70.1442 32.7027C69.641 33.6408 69.3782 34.6838 69.3782 35.7425C69.3782 36.8012 69.641 37.8441 70.1442 38.7823C70.6389 39.6555 71.3738 40.3767 72.2661 40.8648C73.1899 41.3548 74.225 41.6116 75.2767 41.6116C76.3286 41.6116 77.3636 41.3548 78.2874 40.8648Z" fill="white"/>
<path d="M32.4442 45.2321H28.0897C25.7603 45.2321 23.9481 44.5066 22.6529 43.0554C21.3579 41.6043 20.7095 39.5355 20.708 36.8493V26.5703H25.0696V36.8425C25.0696 39.5317 25.7179 41.6004 27.0146 43.0485C28.3113 44.4965 30.1212 45.2244 32.4442 45.2321Z" fill="white"/>
<path d="M11.9885 20.289L8.36012 15.1771H4.35217V20.289H0V1.94214H8.14557C9.63531 1.90881 11.1151 2.18623 12.486 2.75582C13.638 3.23768 14.6212 4.03642 15.3151 5.05435C15.9961 6.11255 16.3422 7.34294 16.31 8.5918C16.3432 9.83838 15.9917 11.0659 15.301 12.1155C14.6005 13.1337 13.6073 13.9277 12.4458 14.3979L16.6683 20.289H11.9885ZM10.8875 6.22891C10.207 5.67879 9.21201 5.40373 7.90274 5.40373H4.36631V11.796H7.90274C9.21044 11.796 10.2054 11.5163 10.8875 10.957C11.5697 10.3977 11.9099 9.61158 11.9083 8.59869C11.9083 7.56129 11.5681 6.77136 10.8875 6.22891Z" fill="white"/>
<path d="M28.769 16.418L28.894 16.4848C28.2435 16.8039 27.5277 16.9763 26.7996 16.989C26.0714 17.0017 25.3497 16.8545 24.688 16.5583C23.4584 15.9588 22.5159 14.9171 22.0592 13.6529C21.0549 11.0533 21.6537 7.47907 24.2094 5.92526C24.9108 5.51017 25.7089 5.27572 26.5288 5.24396C27.3487 5.2122 28.1634 5.38416 28.8963 5.74368C25.7253 7.29059 25.2138 11.9037 26.9112 14.6413C27.3515 15.3886 27.9941 16.0033 28.769 16.418Z" fill="white"/>
<path d="M39.9882 11.116C39.9882 14.3155 38.5737 17.5012 35.7705 19.2849C34.3674 20.1589 32.7343 20.6173 31.0694 20.6043H26.7148C28.6255 20.6185 30.4863 20.011 32.0029 18.8781C33.47 17.7429 34.5541 16.2048 35.115 14.4626C36.3198 10.824 35.4805 6.38785 32.5217 3.76981C30.9306 2.37766 28.8644 1.61383 26.7266 1.62758C28.1577 1.62758 29.5888 1.62758 31.0198 1.62758C32.3472 1.61189 33.6608 1.89175 34.8605 2.44586C36.3405 3.16291 37.5857 4.26866 38.4558 5.63852C39.4817 7.28879 40.0126 9.18636 39.9882 11.116Z" fill="white"/>
<path d="M44.0293 1.94336H48.3838V20.2903H44.0293V1.94336Z" fill="white"/>
</g>
<defs>
<clipPath id="clip0_1107_661">
<rect width="85.7143" height="48" fill="white"/>
</clipPath>
</defs>
</svg>
